<?xml version="1.0" encoding="UTF-8"?>
<svg version="1.1" xmlns="http://www.w3.org/2000/svg" width="649" height="205">
<path d="M0 0 C0.85043381 -0.00428513 1.70086761 -0.00857025 2.57707214 -0.01298523 C4.36623246 -0.01869511 6.15541597 -0.01925364 7.94458008 -0.01489258 C10.65031493 -0.01173932 13.35494725 -0.03521032 16.06054688 -0.06054688 C31.13228144 -0.11759928 42.58490136 1.42092743 53.89453125 12.25390625 C62.60557222 21.66924415 65.4038313 31.97342854 65.16015625 44.64453125 C64.17267844 56.49426497 59.37469318 66.40713896 50.53515625 74.3984375 C38.24534446 83.70470977 24.72442171 84.46421669 9.91796875 84.36328125 C8.66177734 84.35876953 7.40558594 84.35425781 6.11132812 84.34960938 C3.02599212 84.33787806 -0.05924441 84.32146225 -3.14453125 84.30078125 C-3.43585938 85.22761719 -3.7271875 86.15445313 -4.02734375 87.109375 C-5.88181017 92.40692417 -8.09303465 95.19263211 -12.96484375 97.82421875 C-22.29327146 101.97273328 -22.29327146 101.97273328 -27.14453125 100.30078125 C-27.63953125 99.31078125 -27.63953125 99.31078125 -28.14453125 98.30078125 C-27.52578125 97.29015625 -26.90703125 96.27953125 -26.26953125 95.23828125 C-23.76714299 91.05310228 -22.9480669 87.16773899 -23.14453125 82.30078125 C-24.72740035 77.0245509 -28.13169907 74.37128333 -32.21875 70.94921875 C-39.68667932 64.55679244 -43.5943396 55.18300309 -44.3671875 45.515625 C-44.75585206 32.41931929 -40.84739416 21.27261695 -31.95703125 11.55078125 C-22.90803513 3.08236231 -12.08948602 -0.01378765 0 0 Z " fill="#5B7BD5" transform="translate(107.14453125,15.69921875)"/>
<path d="M0 0 C0.92039062 0.00193359 1.84078125 0.00386719 2.7890625 0.00585938 C3.7275 0.01810547 4.6659375 0.03035156 5.6328125 0.04296875 C6.59445313 0.04361328 7.55609375 0.04425781 8.546875 0.04492188 C15.61720416 0.08986041 15.61720416 0.08986041 16.7578125 1.23046875 C16.86135219 2.71193819 16.89632185 4.19828175 16.90307617 5.68334961 C16.90945602 6.63201401 16.91583588 7.58067841 16.92240906 8.55809021 C16.92352188 9.59337357 16.9246347 10.62865692 16.92578125 11.6953125 C16.92910965 12.75778702 16.93243805 13.82026154 16.93586731 14.91493225 C16.94094479 17.17383388 16.94327538 19.43274306 16.94311523 21.69165039 C16.94528347 25.12203718 16.9633796 28.55209286 16.98242188 31.98242188 C16.98535941 34.17838432 16.98734179 36.37434829 16.98828125 38.5703125 C16.99546677 39.58737778 17.00265228 40.60444305 17.01005554 41.65232849 C16.98423322 49.85262685 16.27950715 58.03676072 12.5703125 65.48046875 C12.20550781 66.24875 11.84070313 67.01703125 11.46484375 67.80859375 C9.7578125 70.23046875 9.7578125 70.23046875 2.7578125 76.23046875 C17.6078125 76.56046875 32.4578125 76.89046875 47.7578125 77.23046875 C47.7578125 70.96046875 47.7578125 64.69046875 47.7578125 58.23046875 C50.09663791 49.71714427 53.96125463 43.27482847 61.52734375 38.47265625 C74.29058843 31.68962249 88.9106115 30.23529092 103.11328125 32.84765625 C111.89248116 35.64610361 118.50564313 41.26595261 122.7578125 49.41796875 C124.957407 54.14556944 125.90050978 58.65128667 126.0078125 63.85546875 C126.03359375 64.61085938 126.059375 65.36625 126.0859375 66.14453125 C125.7578125 68.23046875 125.7578125 68.23046875 124.50390625 69.9609375 C121.4897582 72.15243217 118.41366059 71.93080907 114.7578125 72.23046875 C114.7578125 73.22046875 114.7578125 74.21046875 114.7578125 75.23046875 C117.7278125 75.23046875 120.6978125 75.23046875 123.7578125 75.23046875 C123.16225915 82.67488563 120.44494473 86.81162603 115.1328125 91.85546875 C105.47834227 99.93952608 92.05375015 102.14633098 79.7578125 101.23046875 C70.5486814 100.20723196 61.49510594 96.76960651 54.7578125 90.23046875 C53.36425486 88.27195531 52.01498703 86.27919762 50.7578125 84.23046875 C50.72042969 85.07351562 50.68304688 85.9165625 50.64453125 86.78515625 C50.57878906 87.88085938 50.51304688 88.9765625 50.4453125 90.10546875 C50.35830078 91.74128906 50.35830078 91.74128906 50.26953125 93.41015625 C50.01623047 94.80621094 50.01623047 94.80621094 49.7578125 96.23046875 C45.45059365 99.10194798 41.64652003 99.35382885 36.55615234 99.37573242 C35.54515472 99.38211227 34.5341571 99.38849213 33.49252319 99.39506531 C31.87200546 99.39673454 31.87200546 99.39673454 30.21875 99.3984375 C28.5420372 99.4034301 28.5420372 99.4034301 26.83145142 99.40852356 C24.47292492 99.41357868 22.11439129 99.41593232 19.75585938 99.41577148 C16.13920446 99.41796487 12.52285126 99.43615462 8.90625 99.45507812 C6.61458438 99.4580109 4.32291731 99.45999647 2.03125 99.4609375 C0.40465958 99.47171577 0.40465958 99.47171577 -1.25479126 99.48271179 C-2.76183121 99.47809685 -2.76183121 99.47809685 -4.29931641 99.47338867 C-5.18358307 99.47481369 -6.06784973 99.47623871 -6.97891235 99.47770691 C-9.2421875 99.23046875 -9.2421875 99.23046875 -12.2421875 97.23046875 C-12.52822211 94.18027976 -12.62011523 91.33408573 -12.58276367 88.28271484 C-12.58320175 87.35583359 -12.58363983 86.42895233 -12.58409119 85.47398376 C-12.58199575 82.40041269 -12.55862912 79.32738241 -12.53515625 76.25390625 C-12.52956298 74.12684426 -12.52529162 71.99977841 -12.52229309 69.87271118 C-12.51082315 64.26661562 -12.48133745 58.6607522 -12.44818115 53.05474854 C-12.41752656 47.33731222 -12.40379762 41.6198385 -12.38867188 35.90234375 C-12.35646984 24.67828327 -12.30524755 13.45439529 -12.2421875 2.23046875 C-8.04752456 0.99024822 -4.38414368 -0.02152815 0 0 Z M77.7578125 54.23046875 C77.4278125 55.55046875 77.0978125 56.87046875 76.7578125 58.23046875 C83.0278125 58.23046875 89.2978125 58.23046875 95.7578125 58.23046875 C93.68135545 52.00109761 93.26892301 51.0400545 87.7578125 48.23046875 C82.4020441 46.92418377 80.650857 50.05162669 77.7578125 54.23046875 Z M76.7578125 71.23046875 C78.8744632 78.8911957 78.8744632 78.8911957 84.7578125 83.23046875 C88.30102803 84.14727095 88.30102803 84.14727095 91.7578125 83.23046875 C92.82902344 81.76673828 92.82902344 81.76673828 93.921875 80.2734375 C96.06433023 77.54641833 97.53865582 76.7385834 100.96484375 76.20703125 C102.4976488 76.06230288 104.03333344 75.94565193 105.5703125 75.85546875 C106.35857422 75.78714844 107.14683594 75.71882813 107.95898438 75.6484375 C109.89000315 75.48459348 111.82380549 75.35414285 113.7578125 75.23046875 C112.7678125 74.57046875 111.7778125 73.91046875 110.7578125 73.23046875 C110.7578125 72.57046875 110.7578125 71.91046875 110.7578125 71.23046875 C99.5378125 71.23046875 88.3178125 71.23046875 76.7578125 71.23046875 Z " fill="#F5F2EF" transform="translate(37.2421875,81.76953125)"/>
<path d="M0 0 C3.20984114 0 5.13153173 -0.86766217 7.98828125 -2.24609375 C16.41770879 -5.4050831 29.77580174 -5.81898277 38.25 -2.375 C43.76421726 0.65888401 46.97460436 5.06031723 49.38687134 10.87600708 C50.62224191 15.15556293 50.36193916 19.54640858 50.29296875 23.96484375 C50.28872391 24.99815323 50.28447906 26.03146271 50.28010559 27.09608459 C50.26339394 30.37682822 50.22575511 33.65694392 50.1875 36.9375 C50.17244348 39.16991297 50.15875677 41.40233562 50.14648438 43.63476562 C50.1135151 49.09005581 50.06339087 54.54498302 50 60 C46.16063492 61.41277157 42.94634185 62.25043187 38.85546875 62.23046875 C37.93185547 62.22853516 37.00824219 62.22660156 36.05664062 62.22460938 C35.10982422 62.21236328 34.16300781 62.20011719 33.1875 62.1875 C32.22134766 62.18685547 31.25519531 62.18621094 30.25976562 62.18554688 C23.14052002 62.14052002 23.14052002 62.14052002 22 61 C21.86436357 58.17586267 21.78935066 55.37278453 21.75390625 52.546875 C21.72095467 50.79556817 21.68774325 49.0442662 21.65429688 47.29296875 C21.60695576 44.52363604 21.56256143 41.75432122 21.52319336 38.98486328 C21.48337602 36.31781655 21.43183915 33.65118919 21.37890625 30.984375 C21.3704921 30.16024109 21.36207794 29.33610718 21.35340881 28.48699951 C21.26209574 24.22255456 20.95974962 20.89107577 19 17 C16.69 16.67 14.38 16.34 12 16 C8.92856345 21.11310159 8.53449447 25.11096939 8.48828125 30.8984375 C8.46135445 32.15087753 8.46135445 32.15087753 8.43388367 33.42861938 C8.38000078 36.07736261 8.34595639 38.72592794 8.3125 41.375 C8.27930741 43.17841005 8.24481596 44.9817967 8.20898438 46.78515625 C8.12428725 51.18997534 8.05737166 55.5947437 8 60 C4.16063492 61.41277157 0.94634185 62.25043187 -3.14453125 62.23046875 C-4.06814453 62.22853516 -4.99175781 62.22660156 -5.94335938 62.22460938 C-6.89017578 62.21236328 -7.83699219 62.20011719 -8.8125 62.1875 C-9.77865234 62.18685547 -10.74480469 62.18621094 -11.74023438 62.18554688 C-18.85947998 62.14052002 -18.85947998 62.14052002 -20 61 C-20.13563643 58.17586267 -20.21064934 55.37278453 -20.24609375 52.546875 C-20.27904533 50.79556817 -20.31225675 49.0442662 -20.34570312 47.29296875 C-20.39304424 44.52363604 -20.43743857 41.75432122 -20.47680664 38.98486328 C-20.51662398 36.31781655 -20.56816085 33.65118919 -20.62109375 30.984375 C-20.6295079 30.16024109 -20.63792206 29.33610718 -20.64659119 28.48699951 C-20.73602116 24.31049795 -20.82234591 20.6973381 -23 17 C-26.05272465 16.10169161 -26.05272465 16.10169161 -29 16 C-33.44300243 21.2156985 -33.17150359 26.75953567 -33.31640625 33.36328125 C-33.33718735 34.15526413 -33.35796844 34.94724701 -33.37937927 35.76322937 C-33.44447804 38.27956928 -33.50357423 40.79600872 -33.5625 43.3125 C-33.605723 45.02409861 -33.64933848 46.73568735 -33.69335938 48.44726562 C-33.80011847 52.63140984 -33.90149635 56.81565362 -34 61 C-37.48094266 61.78841864 -40.69908848 62.12828808 -44.265625 62.1328125 C-45.23757813 62.13410156 -46.20953125 62.13539063 -47.2109375 62.13671875 C-48.21382813 62.13285156 -49.21671875 62.12898438 -50.25 62.125 C-51.26835937 62.12886719 -52.28671875 62.13273437 -53.3359375 62.13671875 C-54.30273438 62.13542969 -55.26953125 62.13414062 -56.265625 62.1328125 C-57.15024414 62.13168457 -58.03486328 62.13055664 -58.94628906 62.12939453 C-61 62 -61 62 -62 61 C-62.0940067 59.03630847 -62.11743381 57.06920801 -62.11352539 55.10327148 C-62.11344986 53.84203964 -62.11337433 52.5808078 -62.11329651 51.28135681 C-62.1081891 49.89460206 -62.10297309 48.50784771 -62.09765625 47.12109375 C-62.09579201 45.71004791 -62.09436814 44.29900143 -62.09336853 42.88795471 C-62.08954379 39.16759465 -62.0797139 35.4472734 -62.06866455 31.72692871 C-62.05844948 27.93319219 -62.05387071 24.13944942 -62.04882812 20.34570312 C-62.03809158 12.89711769 -62.0210157 5.44856428 -62 -2 C-60.39801371 -2.19545189 -58.79481322 -2.38096982 -57.19116211 -2.56225586 C-56.29852158 -2.6666246 -55.40588104 -2.77099335 -54.4861908 -2.87852478 C-51.24067231 -3.03710073 -49.32142394 -2.23416328 -46.5625 -0.5625 C-43.0439223 1.58731504 -43.0439223 1.58731504 -39 2 C-36.49487555 0.83151682 -34.09561228 -0.48750402 -31.66796875 -1.80859375 C-21.80071313 -6.21490849 -9.07978827 -5.58756201 0 0 Z " fill="#F3F1EE" transform="translate(361,118)"/>
<path d="M0 0 C6.04383396 4.9494772 9.75759074 11.21553513 10.5625 19 C10.62976356 20.45737704 10.68129185 21.91608476 10.6875 23.375 C5.05316322 25.78429552 -0.1814111 25.60579831 -6.1875 25.5 C-7.16203125 25.49097656 -8.1365625 25.48195312 -9.140625 25.47265625 C-11.53150728 25.44921623 -13.92187261 25.41640442 -16.3125 25.375 C-16.64588379 24.74924072 -16.97926758 24.12348145 -17.32275391 23.47875977 C-17.76538574 22.66205811 -18.20801758 21.84535645 -18.6640625 21.00390625 C-19.10057129 20.19252197 -19.53708008 19.3811377 -19.98681641 18.54516602 C-21.73190934 15.68841996 -23.15562383 14.50245577 -26.3125 13.375 C-31.14460173 12.75239945 -31.14460173 12.75239945 -35.3125 14.875 C-36.53193617 17.92359044 -36.50990087 20.13935857 -36.3203125 23.375 C-34.64095935 26.70766981 -31.6119172 27.97278565 -28.3125 29.375 C-25.11982023 30.36986059 -21.89002061 31.09669628 -18.625 31.8125 C4.47050578 37.3041965 4.47050578 37.3041965 10.6875 47.375 C14.53886209 55.05001653 14.65097592 63.11157406 12.75 71.375 C10.30200757 78.69588304 4.63617308 85.09244034 -2.125 88.8125 C-16.59755449 94.87609991 -33.67385266 96.49093741 -48.58203125 91.21875 C-56.41623886 87.67118429 -62.55403412 82.87323029 -66.46484375 75.078125 C-68.32435036 70.10801516 -68.59990398 65.64407291 -68.3125 60.375 C-61.9729132 58.6304454 -55.85104469 58.18198166 -49.3125 58.1875 C-48.558479 58.18685547 -47.80445801 58.18621094 -47.02758789 58.18554688 C-41.58271883 58.23989058 -41.58271883 58.23989058 -39.3125 59.375 C-38.7026486 60.96176974 -38.14833553 62.57013274 -37.625 64.1875 C-36.27201181 67.67731087 -35.27821546 69.98559965 -32.0625 72 C-27.55003691 73.6545698 -25.07121558 73.99909385 -20.3125 73.375 C-17.64583333 72.04166667 -17.64583333 72.04166667 -16.3125 69.375 C-15.76563781 66.59511721 -15.58258531 64.12291413 -16.3125 61.375 C-19.31469907 57.38445322 -22.92169017 56.22982067 -27.5625 54.9375 C-28.26125244 54.72851074 -28.96000488 54.51952148 -29.67993164 54.30419922 C-33.30943398 53.22058396 -36.9539755 52.19793446 -40.60546875 51.19140625 C-49.40709614 48.70439179 -57.14102503 46.10077798 -62.73828125 38.41796875 C-66.65162337 31.16954468 -66.52724584 22.27295918 -64.58203125 14.4296875 C-62.73042467 9.36611033 -60.51800801 5.86249445 -56.3125 2.375 C-55.61125 1.694375 -54.91 1.01375 -54.1875 0.3125 C-38.99332952 -9.92704967 -15.11828736 -9.96561264 0 0 Z " fill="#F6F3F0" transform="translate(281.3125,87.625)"/>
<path d="M0 0 C0.66128906 0.350625 1.32257813 0.70125 2.00390625 1.0625 C8.05010773 4.82342014 12.37671304 11.0696451 14.375 17.875 C15.38332119 22.85610668 15.16728169 27.94437562 15 33 C12.03045709 34.70279307 9.91915193 35.24666179 6.50683594 35.22705078 C5.62622498 35.22689972 4.74561401 35.22674866 3.83831787 35.22659302 C2.42561615 35.21110916 2.42561615 35.21110916 0.984375 35.1953125 C0.01340881 35.1924826 -0.95755737 35.18965271 -1.95794678 35.18673706 C-5.05542385 35.17555292 -8.1526105 35.15045142 -11.25 35.125 C-13.35155832 35.11496792 -15.45312118 35.10584247 -17.5546875 35.09765625 C-22.70323669 35.07561934 -27.85156913 35.04110145 -33 35 C-32.54196488 36.29362958 -32.07711288 37.58484693 -31.609375 38.875 C-31.35124023 39.59429687 -31.09310547 40.31359375 -30.82714844 41.0546875 C-29.68177182 43.74841859 -28.68204233 44.80798119 -26 46 C-22.54271642 46.75011367 -22.54271642 46.75011367 -19 46 C-17.28859531 44.03814584 -15.62126675 42.03697617 -14 40 C-8.54422643 38.48307086 -2.74500161 38.88800134 2.875 38.9375 C4.33679688 38.94426758 4.33679688 38.94426758 5.828125 38.95117188 C8.21881434 38.96289094 10.6093744 38.97929781 13 39 C12.2240033 46.41708473 9.74297796 51.39101886 4.36328125 56.578125 C-5.0569763 63.86839425 -19.39683658 66.07027715 -31 65 C-42.1503002 63.37987091 -50.66323379 59.71807378 -57.78125 50.80078125 C-60.28658905 47.0989822 -62 43.54483718 -62 39 C-62.66 39 -63.32 39 -64 39 C-63.52693996 25.70538159 -62.90618991 14.94364243 -53 5 C-39.46138991 -5.9213041 -15.42833528 -8.24290672 0 0 Z M-29.75 13.5625 C-32.5401375 16.25005331 -32.5401375 16.25005331 -34 22 C-27.73 22 -21.46 22 -15 22 C-15.51016921 17.09646888 -15.51016921 17.09646888 -18.1875 14.75 C-22.44422983 12.1013681 -25.22802429 10.99319562 -29.75 13.5625 Z " fill="#F4F1EE" transform="translate(557,118)"/>
<path d="M0 0 C5.68834832 5.87263606 8.96257477 11.83740148 10 20 C9.9409523 23.39751395 9.6017901 26.65752725 9 30 C3.7027207 31.09507419 -1.3933117 31.12893641 -6.7734375 31.09765625 C-7.6971817 31.0962413 -8.6209259 31.09482635 -9.57266235 31.09336853 C-12.50680862 31.08779609 -15.44087701 31.07524869 -18.375 31.0625 C-20.37109264 31.05748144 -22.36718649 31.05291915 -24.36328125 31.04882812 C-29.24221725 31.03783569 -34.12109545 31.0205901 -39 31 C-38.43333454 32.46489049 -37.84595772 33.92178003 -37.25 35.375 C-36.92515625 36.18710938 -36.6003125 36.99921875 -36.265625 37.8359375 C-34.77237324 40.38921365 -33.7530731 41.01490793 -31 42 C-27.54250051 42.66676878 -27.54250051 42.66676878 -24 42 C-22.26526288 40.05874656 -20.5954349 38.05727132 -19 36 C-15.55901279 34.98231471 -12.27070144 34.88145789 -8.69921875 34.90234375 C-7.72275391 34.90556641 -6.74628906 34.90878906 -5.74023438 34.91210938 C-4.73283203 34.92048828 -3.72542969 34.92886719 -2.6875 34.9375 C-1.66076172 34.94201172 -0.63402344 34.94652344 0.42382812 34.95117188 C2.94927882 34.96291816 5.47460905 34.97934435 8 35 C7.16291665 43.17387273 3.91876058 47.08123942 -1.75 52.75 C-13.1005411 60.60806691 -27.56455965 62.51331316 -41 60.3125 C-51.28421723 57.9751779 -59.5559501 52.76650535 -65.3828125 43.89453125 C-69.6094531 35.30824388 -69.29948547 24.10527494 -67.33984375 14.8984375 C-64.32663607 6.47189133 -59.02905877 0.79240094 -51.1875 -3.375 C-35.56038673 -10.46597125 -13.80980603 -11.61279144 0 0 Z M-38 13 C-38.33 14.65 -38.66 16.3 -39 18 C-32.73 18 -26.46 18 -20 18 C-22.07645705 11.77062886 -22.48888949 10.80958575 -28 8 C-32.9779492 6.90727944 -34.96745915 9.20932394 -38 13 Z " fill="#F5F2EF" transform="translate(483,122)"/>
<path d="M0 0 C0 8.91 0 17.82 0 27 C3.96 27 7.92 27 12 27 C12.97504245 30.90016981 12.94810969 33.30821204 12.5625 37.25 C12.40974609 38.86648437 12.40974609 38.86648437 12.25390625 40.515625 C12.17011719 41.33546875 12.08632812 42.1553125 12 43 C7.52247755 44.70572284 5.01632918 45 0 45 C0 59.85 0 74.7 0 90 C-9.21221281 91.5353688 -18.66071618 91 -28 91 C-28 75.82 -28 60.64 -28 45 C-31.63 45 -35.26 45 -39 45 C-40 44 -40 44 -40.09765625 40.40234375 C-40.0909822 38.91403133 -40.07902183 37.42573568 -40.0625 35.9375 C-40.05798828 35.17888672 -40.05347656 34.42027344 -40.04882812 33.63867188 C-40.0370068 31.75908129 -40.01907078 29.87953101 -40 28 C-36.04 27.67 -32.08 27.34 -28 27 C-27.9175 25.515 -27.835 24.03 -27.75 22.5 C-26.99472413 15.37019577 -24.99222067 10.30610366 -19.375 5.6875 C-13.37020006 1.56831948 -7.21758663 0 0 0 Z " fill="#F6F3EF" transform="translate(202,89)"/>
<path d="M0 0 C0 8.91 0 17.82 0 27 C3.96 27 7.92 27 12 27 C12 32.28 12 37.56 12 43 C6 45 6 45 0 45 C0 59.52 0 74.04 0 89 C-4.26792899 90.7071716 -5.96593345 91.25033865 -10.265625 91.23046875 C-11.23757813 91.22853516 -12.20953125 91.22660156 -13.2109375 91.22460938 C-14.21382812 91.21236328 -15.21671875 91.20011719 -16.25 91.1875 C-17.26835938 91.18685547 -18.28671875 91.18621094 -19.3359375 91.18554688 C-26.85959507 91.14040493 -26.85959507 91.14040493 -28 90 C-28.0928726 88.58774954 -28.11746772 87.17091066 -28.11352539 85.75561523 C-28.11344986 84.85475693 -28.11337433 83.95389862 -28.11329651 83.02574158 C-28.10813522 82.04658279 -28.10297394 81.06742401 -28.09765625 80.05859375 C-28.0962413 79.06118668 -28.09482635 78.0637796 -28.09336853 77.03614807 C-28.08775114 73.83656876 -28.07519571 70.63705831 -28.0625 67.4375 C-28.05748724 65.27408955 -28.05292395 63.11067801 -28.04882812 60.94726562 C-28.03777606 55.63148371 -28.02049979 50.31575354 -28 45 C-31.63 45 -35.26 45 -39 45 C-40.50156874 41.99686252 -40.09281204 39.20932478 -40.0625 35.875 C-40.05347656 34.59367187 -40.04445313 33.31234375 -40.03515625 31.9921875 C-40.02355469 31.00476563 -40.01195312 30.01734375 -40 29 C-35.78004004 27.49878175 -32.49551832 26.7859277 -28 27 C-27.97421875 26.443125 -27.9484375 25.88625 -27.921875 25.3125 C-27.31898162 17.20084367 -25.12883892 11.66482649 -19.0625 6.125 C-13.15823591 1.32301072 -7.58516989 0 0 0 Z " fill="#F1EFEC" transform="translate(611,89)"/>
<path d="M0 0 C1.40958984 -0.00193359 1.40958984 -0.00193359 2.84765625 -0.00390625 C3.83636719 -0.00003906 4.82507813 0.00382812 5.84375 0.0078125 C7.32681641 0.00201172 7.32681641 0.00201172 8.83984375 -0.00390625 C9.77957031 -0.00261719 10.71929687 -0.00132813 11.6875 0 C12.55568359 0.00112793 13.42386719 0.00225586 14.31835938 0.00341797 C16.34375 0.1328125 16.34375 0.1328125 17.34375 1.1328125 C17.45803694 2.73121817 17.50334375 4.33462002 17.52075195 5.93701172 C17.53358719 6.96253143 17.54642242 7.98805115 17.55964661 9.04464722 C17.56703354 10.16428864 17.57442047 11.28393005 17.58203125 12.4375 C17.590103 13.58638702 17.59817474 14.73527405 17.60649109 15.91897583 C17.62035971 18.36198406 17.63106935 20.80501189 17.63891602 23.24804688 C17.65601766 26.95741673 17.69986653 30.66586958 17.74414062 34.375 C17.75427697 36.74999345 17.76279012 39.12499449 17.76953125 41.5 C17.78703934 42.59939911 17.80454742 43.69879822 17.82258606 44.83151245 C17.79260761 55.66307135 14.88560537 65.13844581 7.34375 73.1328125 C6.01964533 74.14500052 4.68727578 75.14654871 3.34375 76.1328125 C3.91782089 76.14311996 4.49189178 76.15342743 5.08335876 76.16404724 C11.03640662 76.27188684 16.98929615 76.38650227 22.94213867 76.50512695 C25.16638896 76.54854838 27.39067415 76.59021795 29.61499023 76.63012695 C32.80463195 76.68765556 35.9940968 76.75139934 39.18359375 76.81640625 C40.68514259 76.84147499 40.68514259 76.84147499 42.21702576 76.86705017 C43.13790482 76.88699539 44.05878387 76.90694061 45.00756836 76.92749023 C45.82253281 76.94303452 46.63749725 76.9585788 47.47715759 76.97459412 C49.34375 77.1328125 49.34375 77.1328125 50.34375 78.1328125 C50.47042764 81.12299411 50.52895838 84.07975358 50.53125 87.0703125 C50.54349609 87.90755859 50.55574219 88.74480469 50.56835938 89.60742188 C50.57029297 90.40857422 50.57222656 91.20972656 50.57421875 92.03515625 C50.57832764 92.77241943 50.58243652 93.50968262 50.58666992 94.26928711 C50.34375 96.1328125 50.34375 96.1328125 48.34375 98.1328125 C46.18727112 98.38677979 46.18727112 98.38677979 43.48266602 98.39160156 C42.4714418 98.39790588 41.46021759 98.40421021 40.41835022 98.41070557 C39.32252121 98.4066571 38.2266922 98.40260864 37.09765625 98.3984375 C35.97560287 98.40035095 34.8535495 98.4022644 33.69749451 98.40423584 C31.32103247 98.40559878 28.94456302 98.40189479 26.56811523 98.39355469 C22.92479752 98.38286691 19.28197406 98.39344142 15.63867188 98.40625 C13.33333224 98.40492823 11.02799292 98.40236547 8.72265625 98.3984375 C7.62885147 98.40248596 6.53504669 98.40653442 5.40809631 98.41070557 C4.39371994 98.40440125 3.37934357 98.39809692 2.33422852 98.39160156 C1.44091324 98.39001038 0.54759796 98.38841919 -0.37278748 98.38677979 C-2.65625 98.1328125 -2.65625 98.1328125 -5.65625 96.1328125 C-5.94760085 93.08815737 -6.0446113 90.24733522 -6.01269531 87.20092773 C-6.01473969 86.27565277 -6.01678406 85.35037781 -6.01889038 84.39706421 C-6.02190682 81.32831276 -6.00339666 78.26009413 -5.984375 75.19140625 C-5.98131903 73.06673821 -5.97944168 70.94206818 -5.97869873 68.81739807 C-5.97409037 64.36101639 -5.95964306 59.90481488 -5.9375 55.44848633 C-5.90920006 49.72253305 -5.89828745 43.99672179 -5.8938179 38.27070522 C-5.88967061 33.88282334 -5.87985922 29.49497047 -5.86794281 25.10710335 C-5.86222672 22.99507951 -5.85747248 20.88305286 -5.85367584 18.7710247 C-5.84683714 15.8257336 -5.83321665 12.88055746 -5.81738281 9.93530273 C-5.81626495 9.05371994 -5.81514709 8.17213715 -5.81399536 7.26383972 C-5.76206089 0.00748597 -5.76206089 0.00748597 0 0 Z " fill="#EEECE9" transform="translate(30.65625,82.8671875)"/>
<path d="M0 0 C1.11858398 0.00326294 1.11858398 0.00326294 2.25976562 0.0065918 C4.5382459 0.00975365 6.81543021 -0.01370955 9.09375 -0.0390625 C10.53645669 -0.04133525 11.97916688 -0.0420391 13.421875 -0.04101562 C15.39800781 -0.04548706 15.39800781 -0.04548706 17.4140625 -0.05004883 C18.44789063 0.07281494 19.48171875 0.19567871 20.546875 0.32226562 C22.81725801 3.72784014 22.80359058 4.97945736 22.8125 8.97851562 C22.81636719 10.63560547 22.81636719 10.63560547 22.8203125 12.32617188 C22.81257813 13.47988281 22.80484375 14.63359375 22.796875 15.82226562 C22.80847656 17.55283203 22.80847656 17.55283203 22.8203125 19.31835938 C22.81773437 20.42308594 22.81515625 21.5278125 22.8125 22.66601562 C22.81024414 23.67857422 22.80798828 24.69113281 22.80566406 25.734375 C22.546875 28.32226562 22.546875 28.32226562 20.546875 31.32226562 C17.4140625 31.69458008 17.4140625 31.69458008 13.421875 31.68554688 C12.7191748 31.68604538 12.01647461 31.68654388 11.29248047 31.6870575 C9.80628635 31.68471624 8.32008833 31.67498451 6.83398438 31.65844727 C4.55562995 31.63485628 2.27844547 31.63788496 0 31.64453125 C-11.17405244 31.60133819 -11.17405244 31.60133819 -13.453125 29.32226562 C-13.71191406 26.6484375 -13.71191406 26.6484375 -13.71875 23.29101562 C-13.72132812 22.08832031 -13.72390625 20.885625 -13.7265625 19.64648438 C-13.71882813 18.38449219 -13.71109375 17.1225 -13.703125 15.82226562 C-13.71085937 14.56027344 -13.71859375 13.29828125 -13.7265625 11.99804688 C-13.72398438 10.79535156 -13.72140625 9.59265625 -13.71875 8.35351562 C-13.71649414 7.24556641 -13.71423828 6.13761719 -13.71191406 4.99609375 C-13.03158853 -2.03308101 -5.41823896 0.02094409 0 0 Z " fill="#D1D5E0" transform="translate(123.453125,41.677734375)"/>
<path d="M0 0 C3.47914941 -0.02887814 6.95826831 -0.04675687 10.4375 -0.0625 C11.92733398 -0.07506836 11.92733398 -0.07506836 13.44726562 -0.08789062 C14.39150391 -0.09111328 15.33574219 -0.09433594 16.30859375 -0.09765625 C17.62041626 -0.10551147 17.62041626 -0.10551147 18.95874023 -0.11352539 C21 0 21 0 22 1 C22.10353969 2.48146944 22.13850935 3.967813 22.14526367 5.45288086 C22.15164352 6.40154526 22.15802338 7.35020966 22.16459656 8.32762146 C22.16570938 9.36290482 22.1668222 10.39818817 22.16796875 11.46484375 C22.17129715 12.52731827 22.17462555 13.58979279 22.17805481 14.6844635 C22.18313229 16.94336513 22.18546288 19.20227431 22.18530273 21.46118164 C22.18747097 24.89156843 22.2055671 28.32162411 22.22460938 31.75195312 C22.22754691 33.94791557 22.22952929 36.14387954 22.23046875 38.33984375 C22.23765427 39.35690903 22.24483978 40.3739743 22.25224304 41.42185974 C22.22642072 49.6221581 21.52169465 57.80629197 17.8125 65.25 C17.44769531 66.01828125 17.08289063 66.7865625 16.70703125 67.578125 C15.07753319 69.88999868 13.54383858 71.34603147 11.39331055 73.15136719 C10.75902634 73.68638855 10.12474213 74.22140991 9.47123718 74.77264404 C8.74297478 75.38018524 8.74297478 75.38018524 8 76 C14.37189886 76.1680197 20.74396347 76.32794807 27.11621094 76.48217773 C29.28520334 76.53563881 31.45415044 76.59097127 33.62304688 76.64819336 C36.73557769 76.72998976 39.8482079 76.80511587 42.9609375 76.87890625 C43.934935 76.90594131 44.9089325 76.93297638 45.91244507 76.96083069 C47.26361923 76.99097511 47.26361923 76.99097511 48.64208984 77.02172852 C49.43706879 77.04171402 50.23204773 77.06169952 51.05111694 77.08229065 C53.08156501 77.12966846 53.08156501 77.12966846 55 76 C55.91867932 80.53771908 56.04470067 84.63302282 55.75 89.25 C55.68296875 90.47203125 55.6159375 91.6940625 55.546875 92.953125 C55.36640625 93.95859375 55.1859375 94.9640625 55 96 C54.01 96.66 53.02 97.32 52 98 C50.68 97.67 49.36 97.34 48 97 C48 91.06 48 85.12 48 79 C32.49 78.67 16.98 78.34 1 78 C2.65 76.35 4.3 74.7 6 73 C7.70365257 70.903164 7.70365257 70.903164 9.125 68.75 C9.60195313 68.06421875 10.07890625 67.3784375 10.5703125 66.671875 C14.82239533 58.72535956 15.41699581 51.44144059 15.29296875 42.52734375 C15.28872391 41.3636879 15.28447906 40.20003204 15.28010559 39.00111389 C15.26341785 35.31299942 15.22578319 31.62544714 15.1875 27.9375 C15.1724404 25.42513814 15.15875424 22.91276765 15.14648438 20.40039062 C15.11354664 14.26671305 15.06183235 8.13345159 15 2 C10.05 1.67 5.1 1.34 0 1 C0 0.67 0 0.34 0 0 Z " fill="#2E3760" transform="translate(32,82)"/>
<path d="M0 0 C-0.515625 0.495 -1.03125 0.99 -1.5625 1.5 C-3.3594608 4.62514921 -3.21328421 6.49328279 -3.0078125 10 C-1.32845935 13.33266981 1.7005828 14.59778565 5 16 C8.19267977 16.99486059 11.42247939 17.72169628 14.6875 18.4375 C37.78300578 23.9291965 37.78300578 23.9291965 44 34 C47.85136209 41.67501653 47.96347592 49.73657406 46.0625 58 C43.5142406 65.62073802 37.66384678 71.94473999 30.5625 75.625 C27 77 27 77 25 77 C25 76.34 25 75.68 25 75 C26.609375 73.921875 26.609375 73.921875 28.75 72.75 C34.38801163 69.33935099 37.29305749 64.69374061 39.45703125 58.46484375 C41.18312845 50.62910752 41.13949697 42.07448211 37.31640625 34.89453125 C30.13482287 24.55901807 17.77184834 22.48524782 6.2199707 19.92553711 C0.8326542 18.6782841 -3.3846037 17.08100627 -8 14 C-9.73949027 10.52101947 -9.72472797 6.78469051 -9 3 C-4.26315789 -1.42105263 -4.26315789 -1.42105263 0 0 Z " fill="#6B72AE" transform="translate(248,101)"/>
<path d="M0 0 C7 1 7 1 16 6 C16 12.93 16 19.86 16 27 C13.42838542 28.26953125 10.85677083 29.5390625 8.28515625 30.80859375 C6.09471096 31.80525394 6.09471096 31.80525394 5 33 C3.35 33 1.7 33 0 33 C0 22.11 0 11.22 0 0 Z " fill="#D9DDE6" transform="translate(91,41)"/>
<path d="M0 0 C20.49631978 -0.84714984 20.49631978 -0.84714984 27.5390625 5.35546875 C33.8541564 12.24298344 34.43145876 19.09279089 34.29296875 27.96484375 C34.28872391 28.99815323 34.28447906 30.03146271 34.28010559 31.09608459 C34.26339394 34.37682822 34.22575511 37.65694392 34.1875 40.9375 C34.17244348 43.16991297 34.15875677 45.40233562 34.14648438 47.63476562 C34.1135151 53.09005581 34.06339087 58.54498302 34 64 C31.525 64.495 31.525 64.495 29 65 C28.99120064 64.1810022 28.99120064 64.1810022 28.98222351 63.34545898 C28.91801676 57.63443333 28.83352861 51.92395704 28.73754883 46.21337891 C28.70440718 44.08552316 28.67634213 41.95758177 28.65356445 39.82958984 C28.61982028 36.76102392 28.56749432 33.69323518 28.51171875 30.625 C28.50532883 29.68197021 28.4989389 28.73894043 28.49235535 27.76733398 C28.36204396 21.8401716 27.38077175 17.436569 25 12 C24.649375 11.113125 24.29875 10.22625 23.9375 9.3125 C20.02284241 4.64016674 14.61662811 2.4212433 8.67578125 1.46484375 C5.77853417 1.22140642 2.90647009 1.05493328 0 1 C0 0.67 0 0.34 0 0 Z " fill="#3C4575" transform="translate(377,114)"/>
<path d="M0 0 C0.33 0 0.66 0 1 0 C1 6.27 1 12.54 1 19 C1.66 19.33 2.32 19.66 3 20 C3 20.66 3 21.32 3 22 C3.99 22 4.98 22 6 22 C6 23.32 6 24.64 6 26 C5.13375 26.12375 5.13375 26.12375 4.25 26.25 C1.83688795 26.85611294 1.83688795 26.85611294 0.125 29 C-4.35050126 33.21223648 -10.81843733 32.06407787 -16.609375 31.9375 C-19.0160556 31.83149234 -19.0160556 31.83149234 -21 33 C-21 32.34 -21 31.68 -21 31 C-21.56847656 31.01160156 -22.13695313 31.02320312 -22.72265625 31.03515625 C-26.58238155 31.08026155 -30.10788533 30.98287534 -33.9375 30.375 C-35.4534375 30.189375 -35.4534375 30.189375 -37 30 C-37.66 30.66 -38.32 31.32 -39 32 C-41.33333333 32 -43.66666667 32 -46 32 C-48.35369807 32.88064927 -48.35369807 32.88064927 -50 34 C-50.99 33.34 -51.98 32.68 -53 32 C-51.69331354 28.07994061 -50.21332305 27.71967958 -46.625 25.8125 C-45.64789063 25.28269531 -44.67078125 24.75289062 -43.6640625 24.20703125 C-41 23 -41 23 -38 23 C-38 16.4 -38 9.8 -38 3 C-37.34 3 -36.68 3 -36 3 C-35.97494385 3.69150146 -35.9498877 4.38300293 -35.92407227 5.09545898 C-35.80847839 8.20967866 -35.68558758 11.32356789 -35.5625 14.4375 C-35.52318359 15.52611328 -35.48386719 16.61472656 -35.44335938 17.73632812 C-35.40146484 18.77080078 -35.35957031 19.80527344 -35.31640625 20.87109375 C-35.27974854 21.82943115 -35.24309082 22.78776855 -35.20532227 23.77514648 C-35.24165576 25.97138925 -35.24165576 25.97138925 -34 27 C-31.6243148 27.0883967 -29.27791326 27.11530305 -26.90234375 27.09765625 C-26.19348526 27.0962413 -25.48462677 27.09482635 -24.75428772 27.09336853 C-22.48198288 27.08775443 -20.20977525 27.07519963 -17.9375 27.0625 C-16.40039204 27.05748681 -14.86328255 27.05292359 -13.32617188 27.04882812 C-9.55074358 27.03778042 -5.77538829 27.02050641 -2 27 C-0.68638302 24.37276604 -0.78746091 22.27389439 -0.68359375 19.3359375 C-0.62075195 17.65371094 -0.62075195 17.65371094 -0.55664062 15.9375 C-0.51732422 14.761875 -0.47800781 13.58625 -0.4375 12.375 C-0.37272461 10.59996094 -0.37272461 10.59996094 -0.30664062 8.7890625 C-0.20032574 5.85949672 -0.09829358 2.92984412 0 0 Z " fill="#5563BB" transform="translate(146,45)"/>
<path d="M0 0 C0 8.91 0 17.82 0 27 C3.96 27 7.92 27 12 27 C12.96533651 30.86134604 12.97704212 33.28173536 12.625 37.1875 C12.53476563 38.25355469 12.44453125 39.31960937 12.3515625 40.41796875 C12 43 12 43 11 44 C9.35 44 7.7 44 6 44 C6 39.05 6 34.1 6 29 C2.04 28.67 -1.92 28.34 -6 28 C-6 19.42 -6 10.84 -6 2 C-7.65 2.66 -9.3 3.32 -11 4 C-13.3125 3.625 -13.3125 3.625 -15 3 C-13.44033782 2.491217 -11.87710759 1.99336531 -10.3125 1.5 C-9.44238281 1.2215625 -8.57226562 0.943125 -7.67578125 0.65625 C-5 0 -5 0 0 0 Z " fill="#4E5589" transform="translate(202,89)"/>
<path d="M0 0 C1.98 0 3.96 0 6 0 C6 14.85 6 29.7 6 45 C4.02 45 2.04 45 0 45 C0 30.15 0 15.3 0 0 Z " fill="#7982C9" transform="translate(196,134)"/>
<path d="M0 0 C6.6 0 13.2 0 20 0 C20 17.82 20 35.64 20 54 C19.67 54 19.34 54 19 54 C18.67 56.64 18.34 59.28 18 62 C16.515 62.495 16.515 62.495 15 63 C14.26676204 65.01508358 14.26676204 65.01508358 14 67 C13.34 66.67 12.68 66.34 12 66 C12.2131636 65.35290573 12.42632721 64.70581146 12.64595032 64.03910828 C14.88925376 56.664603 15.40076515 50.0077312 15.29296875 42.33203125 C15.28872391 41.17120529 15.28447906 40.01037933 15.28010559 38.81437683 C15.26346074 35.14683749 15.22583488 31.47987016 15.1875 27.8125 C15.17243484 25.30925279 15.15874966 22.80599687 15.14648438 20.30273438 C15.11360372 14.20160623 15.06192034 8.10089972 15 2 C10.05 1.67 5.1 1.34 0 1 C0 0.67 0 0.34 0 0 Z " fill="#6975C6" transform="translate(32,82)"/>
<path d="M0 0 C24.30532971 -0.90672733 24.30532971 -0.90672733 34.875 7.625 C41.08742175 13.58135419 44.46473525 20.80328115 45.203125 29.3515625 C45.21859375 30.10179687 45.2340625 30.85203125 45.25 31.625 C45.27578125 32.38039062 45.3015625 33.13578125 45.328125 33.9140625 C45 36 45 36 43.734375 37.8359375 C42 39 42 39 39.8125 38.6875 C39.214375 38.460625 38.61625 38.23375 38 38 C38.04640625 37.24976563 38.0928125 36.49953125 38.140625 35.7265625 C38.47445559 26.26008063 36.80285146 19.23068037 30.9375 11.6875 C24.61053529 4.90762892 15.31672636 2.06155529 6.3125 1.4375 C5.13300781 1.35371094 3.95351562 1.26992187 2.73828125 1.18359375 C1.83464844 1.12300781 0.93101563 1.06242187 0 1 C0 0.67 0 0.34 0 0 Z " fill="#5E67A5" transform="translate(118,114)"/>
<path d="M0 0 C21.04376697 -0.78505245 21.04376697 -0.78505245 30 4 C30.66128906 4.350625 31.32257812 4.70125 32.00390625 5.0625 C38.05010773 8.82342014 42.37671304 15.0696451 44.375 21.875 C45.38332119 26.85610668 45.16728169 31.94437562 45 37 C43.125 38.0625 43.125 38.0625 41 39 C40.01 38.505 40.01 38.505 39 38 C38.81838545 35.85933012 38.73142929 33.71041099 38.6875 31.5625 C38.11217455 22.27240867 35.5591508 16.14144809 28.875 9.625 C20.24443313 2.57527954 10.86740165 1.34554536 0 1 C0 0.67 0 0.34 0 0 Z " fill="#626AA3" transform="translate(527,114)"/>
<path d="M0 0 C12.77837661 -0.50607432 24.63663787 -0.71464543 35 8 C40.68834832 13.87263606 43.96257477 19.83740148 45 28 C44.9409523 31.39751395 44.6017901 34.65752725 44 38 C42.35 38 40.7 38 39 38 C38.91363281 36.94941406 38.82726562 35.89882812 38.73828125 34.81640625 C37.63202168 23.12265739 35.41406957 15.4381272 26.2578125 7.5078125 C20.40746897 3.60083568 14.93625657 2.45452182 8.0625 1.8125 C6.89364258 1.6897168 6.89364258 1.6897168 5.70117188 1.56445312 C3.80179203 1.36635829 1.90101238 1.18176159 0 1 C0 0.67 0 0.34 0 0 Z " fill="#686D9F" transform="translate(448,114)"/>
<path d="M0 0 C1.216875 0.165 2.43375 0.33 3.6875 0.5 C2.90375 1.015625 2.12 1.53125 1.3125 2.0625 C-2.71043619 5.79808361 -3.34622798 10.2664412 -3.63134766 15.59936523 C-3.6723491 17.08554807 -3.70370733 18.57202112 -3.7265625 20.05859375 C-3.74592865 20.84774673 -3.7652948 21.63689972 -3.7852478 22.44996643 C-3.84454824 24.94570447 -3.8912285 27.44148989 -3.9375 29.9375 C-3.97572551 31.63999296 -4.01477984 33.34246752 -4.0546875 35.04492188 C-4.15020828 39.19646341 -4.23441969 43.34809533 -4.3125 47.5 C-5.9625 47.5 -7.6125 47.5 -9.3125 47.5 C-9.43675623 42.09236899 -9.52714659 36.68558171 -9.5871582 31.27685547 C-9.61219289 29.43979401 -9.64623145 27.60283107 -9.68969727 25.76611328 C-9.75084037 23.11466073 -9.77881957 20.46453266 -9.80078125 17.8125 C-9.82658768 17.00071289 -9.8523941 16.18892578 -9.87898254 15.35253906 C-9.8815793 9.98784773 -8.657381 6.50789925 -5.81022644 1.97143555 C-3.85453839 0.05007738 -2.70577645 0.00387612 0 0 Z " fill="#646EB4" transform="translate(331.3125,131.5)"/>
<path d="M0 0 C1.32 0 2.64 0 4 0 C4 8.91 4 17.82 4 27 C7.96 27 11.92 27 16 27 C16.02684679 29.64590014 16.04676357 32.29153096 16.0625 34.9375 C16.07087891 35.69224609 16.07925781 36.44699219 16.08789062 37.22460938 C16.09652441 39.14994313 16.05224333 41.07535581 16 43 C15.67 43.33 15.34 43.66 15 44 C13.35 44 11.7 44 10 44 C10 39.05 10 34.1 10 29 C6.37 28.67 2.74 28.34 -1 28 C-1.02886338 23.52084672 -1.04675187 19.04171709 -1.0625 14.5625 C-1.07087891 13.28310547 -1.07925781 12.00371094 -1.08789062 10.68554688 C-1.09111328 9.47060547 -1.09433594 8.25566406 -1.09765625 7.00390625 C-1.10289307 5.87799072 -1.10812988 4.7520752 -1.11352539 3.59204102 C-1 1 -1 1 0 0 Z " fill="#6C76B9" transform="translate(607,89)"/>
<path d="M0 0 C0.86625 0.3403125 0.86625 0.3403125 1.75 0.6875 C1.0233313 1.89720459 1.0233313 1.89720459 0.28198242 3.13134766 C-1.58576291 7.46689802 -1.72449631 10.92442123 -1.76171875 15.5859375 C-1.78864555 16.83837753 -1.78864555 16.83837753 -1.81611633 18.11611938 C-1.86999922 20.76486261 -1.90404361 23.41342794 -1.9375 26.0625 C-1.97069259 27.86591005 -2.00518404 29.6692967 -2.04101562 31.47265625 C-2.12571275 35.87747534 -2.19262834 40.2822437 -2.25 44.6875 C-4.725 45.1825 -4.725 45.1825 -7.25 45.6875 C-7.27473355 40.20654631 -7.29287596 34.72562517 -7.30493164 29.24462891 C-7.30995792 27.38036534 -7.31677992 25.5161057 -7.32543945 23.65185547 C-7.33757963 20.97101876 -7.34324539 18.2902342 -7.34765625 15.609375 C-7.35281754 14.77694275 -7.35797882 13.9445105 -7.36329651 13.08685303 C-7.36340981 11.91609222 -7.36340981 11.91609222 -7.36352539 10.72167969 C-7.365746 10.03773132 -7.36796661 9.35378296 -7.37025452 8.64910889 C-7.16523299 5.30476835 -6.84286762 3.28036762 -4.4375 0.875 C-2.25 -0.3125 -2.25 -0.3125 0 0 Z " fill="#454E7C" transform="translate(371.25,133.3125)"/>
<path d="M0 0 C1.65 0 3.3 0 5 0 C5 14.52 5 29.04 5 44 C2.525 44.495 2.525 44.495 0 45 C0 30.15 0 15.3 0 0 Z " fill="#6876C6" transform="translate(606,134)"/>
<path d="M0 0 C13.40184245 -0.49996511 25.28099575 -0.77117014 36.2109375 8.1796875 C41.8838348 13.95167471 44.60106012 20.03280858 45.08984375 28.06640625 C45 30 45 30 44 31 C42.33382885 31.04063832 40.66611905 31.042721 39 31 C38.91363281 30.29875 38.82726562 29.5975 38.73828125 28.875 C37.47157309 20.3218146 35.15375178 14.3202448 28.375 8.75 C19.60515466 2.73405002 10.45364662 1.3323894 0 1 C0 0.67 0 0.34 0 0 Z " fill="#636BA7" transform="translate(247,81)"/>
<path d="M0 0 C0.99 0 1.98 0 3 0 C4.14315747 2.28631494 4.12112732 3.54347406 4.11352539 6.08251953 C4.11341209 7.34360031 4.11341209 7.34360031 4.11329651 8.63015747 C4.10555458 9.99272171 4.10555458 9.99272171 4.09765625 11.3828125 C4.0962413 12.31221649 4.09482635 13.24162048 4.09336853 14.19918823 C4.08776053 17.17449124 4.07520668 20.14971964 4.0625 23.125 C4.05748603 25.13932183 4.05292295 27.15364484 4.04882812 29.16796875 C4.0377885 34.11200802 4.02051849 39.05599135 4 44 C2.68 44 1.36 44 0 44 C0 29.48 0 14.96 0 0 Z " fill="#6A74C2" transform="translate(406,135)"/>
<path d="M0 0 C0.33 0 0.66 0 1 0 C1 6.27 1 12.54 1 19 C1.66 19.33 2.32 19.66 3 20 C3 20.66 3 21.32 3 22 C3.99 22 4.98 22 6 22 C6 23.32 6 24.64 6 26 C5.13375 26.12375 5.13375 26.12375 4.25 26.25 C1.83688795 26.85611294 1.83688795 26.85611294 0.125 29 C-4.35050126 33.21223648 -10.81843733 32.06407787 -16.609375 31.9375 C-19.0160556 31.83149234 -19.0160556 31.83149234 -21 33 C-21 32.34 -21 31.68 -21 31 C-21.90492187 31.05220703 -21.90492187 31.05220703 -22.828125 31.10546875 C-23.62734375 31.13253906 -24.4265625 31.15960938 -25.25 31.1875 C-26.43335937 31.23970703 -26.43335937 31.23970703 -27.640625 31.29296875 C-30 31 -30 31 -34 28 C-23.44 27.67 -12.88 27.34 -2 27 C-0.68638302 24.37276604 -0.78746091 22.27389439 -0.68359375 19.3359375 C-0.62075195 17.65371094 -0.62075195 17.65371094 -0.55664062 15.9375 C-0.51732422 14.761875 -0.47800781 13.58625 -0.4375 12.375 C-0.37272461 10.59996094 -0.37272461 10.59996094 -0.30664062 8.7890625 C-0.20032574 5.85949672 -0.09829358 2.92984412 0 0 Z " fill="#505AA9" transform="translate(146,45)"/>
<path d="M0 0 C1 3 1 3 0.1796875 5.26953125 C-5.63880888 16.61037299 -12.95300898 24.1435219 -25.1875 28.375 C-34.12938274 31.18845148 -42.63198375 31.12593561 -51.9375 31.0625 C-53.19369141 31.05798828 -54.44988281 31.05347656 -55.74414062 31.04882812 C-58.82947663 31.03709681 -61.91471316 31.020681 -65 31 C-65.28875 31.969375 -65.5775 32.93875 -65.875 33.9375 C-67 37 -67 37 -69 38 C-68.01 35.03 -67.02 32.06 -66 29 C-64.60261597 28.98598145 -64.60261597 28.98598145 -63.17700195 28.97167969 C-59.65578558 28.9271543 -56.13569308 28.86532001 -52.61499023 28.79248047 C-51.10338067 28.76459158 -49.59163396 28.74322094 -48.07983398 28.72900391 C-36.29580348 28.61167204 -23.37405678 28.07210445 -14 20 C-13.505 18.515 -13.505 18.515 -13 17 C-12.01 17 -11.02 17 -10 17 C-9.67 15.68 -9.34 14.36 -9 13 C-8.34 13.33 -7.68 13.66 -7 14 C-6.690625 12.906875 -6.38125 11.81375 -6.0625 10.6875 C-4.66176577 5.82612827 -3.68531147 3.44754944 0 0 Z " fill="#161E58" transform="translate(169,69)"/>
<path d="M0 0 C0.66 0 1.32 0 2 0 C2.05454409 2.35448675 2.0939279 4.70767875 2.125 7.0625 C2.14820313 8.37347656 2.17140625 9.68445313 2.1953125 11.03515625 C1.83620264 18.32508648 -0.05112085 22.87321664 -4.921875 28.1328125 C-8.38108599 31.24090057 -13.17022297 35 -18 35 C-18 34.34 -18 33.68 -18 33 C-16.390625 31.921875 -16.390625 31.921875 -14.25 30.75 C-7.91414688 26.91719996 -4.76987646 21.12670255 -3 14 C-2.65892013 10.84302814 -2.44111185 7.71146552 -2.30859375 4.5390625 C-2 2 -2 2 0 0 Z " fill="#6E79BD" transform="translate(291,143)"/>
<path d="M0 0 C2.31 0 4.62 0 7 0 C6.01 0.33 5.02 0.66 4 1 C4 1.99 4 2.98 4 4 C6.97 4 9.94 4 13 4 C12.39642038 11.54474521 9.63502346 15.65170796 4.1875 20.6875 C0.61425399 23.69409319 -2.54107815 25.60112256 -7 27 C-7.99 26.67 -8.98 26.34 -10 26 C-9.34773437 25.68289062 -8.69546875 25.36578125 -8.0234375 25.0390625 C-1.05477089 21.318329 2.86726364 17.29430497 6 10 C6.33 8.35 6.66 6.7 7 5 C1.72 5 -3.56 5 -9 5 C-9 4.67 -9 4.34 -9 4 C-7.88625 3.855625 -6.7725 3.71125 -5.625 3.5625 C-2.17857953 3.21627965 -2.17857953 3.21627965 0 2 C0 1.34 0 0.68 0 0 Z " fill="#475085" transform="translate(148,153)"/>
<path d="M0 0 C1.13695312 -0.00580078 1.13695312 -0.00580078 2.296875 -0.01171875 C7.87140067 -0.00179967 7.87140067 -0.00179967 10.125 1.125 C10.7348514 2.71176974 11.28916447 4.32013274 11.8125 5.9375 C13.18380577 9.50595369 14.16690635 11.71560354 17.5 13.6875 C20.78843015 14.99153265 23.61461595 15.78252351 27.125 16.125 C27.125 16.455 27.125 16.785 27.125 17.125 C15.46306566 17.74789264 15.46306566 17.74789264 10.5 15.4375 C6.4168425 11.46179401 5.25317636 8.76588178 4.125 3.125 C-2.805 2.795 -9.735 2.465 -16.875 2.125 C-16.875 1.795 -16.875 1.465 -16.875 1.125 C-11.20643472 0.31520496 -5.72250751 -0.03011846 0 0 Z " fill="#686D9D" transform="translate(231.875,145.875)"/>
<path d="M0 0 C7.26 0 14.52 0 22 0 C20.81166643 8.31833499 18.12260431 12.46994793 11.875 17.875 C7.42585551 21.1634981 7.42585551 21.1634981 5 22 C4.01 21.67 3.02 21.34 2 21 C2.68707031 20.41992188 3.37414062 19.83984375 4.08203125 19.2421875 C4.98308594 18.46101563 5.88414062 17.67984375 6.8125 16.875 C7.70582031 16.10929687 8.59914063 15.34359375 9.51953125 14.5546875 C13.58646918 10.36606167 14.86073147 6.69634266 16 1 C10.72 1 5.44 1 0 1 C0 0.67 0 0.34 0 0 Z " fill="#666DA7" transform="translate(469,157)"/>
<path d="M0 0 C6.93 0 13.86 0 21 0 C19.90668517 7.65320378 17.96125624 12.40439819 12.22265625 17.61328125 C9.06120135 19.95843051 5.81823497 21.93937918 2 23 C1.01 22.67 0.02 22.34 -1 22 C-0.39671875 21.62488281 0.2065625 21.24976563 0.828125 20.86328125 C7.61294472 16.51880798 11.7347796 12.51000692 15 5 C15 4.01 15 3.02 15 2 C10.05 1.67 5.1 1.34 0 1 C0 0.67 0 0.34 0 0 Z " fill="#7176AC" transform="translate(549,157)"/>
<path d="M0 0 C0.78375 0.04125 1.5675 0.0825 2.375 0.125 C2.375 0.785 2.375 1.445 2.375 2.125 C3.365 2.125 4.355 2.125 5.375 2.125 C5.375 1.465 5.375 0.805 5.375 0.125 C10.16217542 0.07556535 14.94920227 0.03926418 19.73657227 0.01513672 C21.36517932 0.00507858 22.99376832 -0.00856958 24.62231445 -0.02587891 C26.96309872 -0.05013574 29.30364424 -0.06148483 31.64453125 -0.0703125 C32.37275589 -0.08063507 33.10098053 -0.09095764 33.85127258 -0.10159302 C37.58775069 -0.10242249 39.18175056 -0.00383296 42.375 2.125 C27.03 2.62 27.03 2.62 11.375 3.125 C10.715 4.775 10.055 6.425 9.375 8.125 C8.715 8.125 8.055 8.125 7.375 8.125 C7.375 14.725 7.375 21.325 7.375 28.125 C7.045 28.125 6.715 28.125 6.375 28.125 C6.045 21.195 5.715 14.265 5.375 7.125 C2.075 5.475 -1.225 3.825 -4.625 2.125 C-2.625 0.125 -2.625 0.125 0 0 Z " fill="#738ED8" transform="translate(100.625,39.875)"/>
<path d="M0 0 C2.6045056 3.84139436 2.12497248 7.70292109 1.8125 12.125 C1.76512695 13.21748047 1.76512695 13.21748047 1.71679688 14.33203125 C1.58203125 16.4453125 1.58203125 16.4453125 1 20 C0.01 20.66 -0.98 21.32 -2 22 C-3.32 21.67 -4.64 21.34 -6 21 C-6 14.73 -6 8.46 -6 2 C-4.02 2 -2.04 2 0 2 C0 1.34 0 0.68 0 0 Z " fill="#616AA5" transform="translate(86,158)"/>
<path d="M0 0 C0.33 0 0.66 0 1 0 C1 14.85 1 29.7 1 45 C-0.65 45 -2.3 45 -4 45 C-4 33.45 -4 21.9 -4 10 C-3.67 10 -3.34 10 -3 10 C-2.67 20.56 -2.34 31.12 -2 42 C-1.71202154 31.91929873 -1.71202154 31.91929873 -1.43188477 21.83837891 C-1.21300666 14.51868769 -0.85415115 7.27822914 0 0 Z " fill="#545E99" transform="translate(201,134)"/>
<path d="M0 0 C-0.33 8.25 -0.66 16.5 -1 25 C-1.99 24.67 -2.98 24.34 -4 24 C-4.33 24.99 -4.66 25.98 -5 27 C-5 18.42 -5 9.84 -5 1 C-6.65 1.66 -8.3 2.32 -10 3 C-12.3125 2.625 -12.3125 2.625 -14 2 C-8.89415681 -0.6352739 -6.53256034 0 0 0 Z " fill="#6975C2" transform="translate(201,90)"/>
<path d="M0 0 C0.99 0.33 1.98 0.66 3 1 C3.33 13.21 3.66 25.42 4 38 C2.68 38 1.36 38 0 38 C0 25.46 0 12.92 0 0 Z " fill="#6874C9" transform="translate(364,141)"/>
<path d="M0 0 C0.33 0 0.66 0 1 0 C1.45796457 3.12942457 1.50559016 5.23225198 -0.265625 7.921875 C-4.28327338 12.64163669 -4.28327338 12.64163669 -7 14 C7.85 14.33 22.7 14.66 38 15 C38 15.33 38 15.66 38 16 C20.84 16 3.68 16 -14 16 C-12.35 14.35 -10.7 12.7 -9 11 C-7.65415887 9.19130345 -6.43605968 7.3442532 -5.2109375 5.453125 C-4 4 -4 4 -1 3 C-0.67 2.01 -0.34 1.02 0 0 Z " fill="#3F4467" transform="translate(47,144)"/>
<path d="M0 0 C4.54681717 3.94821659 5.62640884 9.74726628 6.29296875 15.55078125 C6.49057734 21.30025012 6.49057734 21.30025012 4.7265625 23.81640625 C3.87191406 24.40228516 3.87191406 24.40228516 3 25 C1.68 24.67 0.36 24.34 -1 24 C-1 18.72 -1 13.44 -1 8 C-0.01 8.33 0.98 8.66 2 9 C2 7.35 2 5.7 2 4 C1.34 4 0.68 4 0 4 C0 2.68 0 1.36 0 0 Z " fill="#454C80" transform="translate(157,128)"/>
<path d="M0 0 C4.82054773 4.29158493 6.02902937 8.73806228 7 15 C6.95485148 18.39968335 6.60206263 21.65601358 6 25 C4.35 25 2.7 25 1 25 C0.97301578 22.56242587 0.95316901 20.12515085 0.9375 17.6875 C0.92912109 16.99720703 0.92074219 16.30691406 0.91210938 15.59570312 C0.89692094 12.4516975 0.99806673 10.00579981 2 7 C1.40206327 4.64811553 0.74118205 2.31074405 0 0 Z " fill="#6B75BF" transform="translate(486,127)"/>
<path d="M0 0 C1.65 0 3.3 0 5 0 C5 14.52 5 29.04 5 44 C2.525 44.495 2.525 44.495 0 45 C0 30.15 0 15.3 0 0 Z M1 1 C1 14.53 1 28.06 1 42 C1.99 42 2.98 42 4 42 C4 28.47 4 14.94 4 1 C3.01 1 2.02 1 1 1 Z " fill="#535B8E" transform="translate(606,134)"/>
<path d="M0 0 C5.65998046 -0.04934926 11.31983636 -0.08569529 16.97998047 -0.10986328 C18.90643494 -0.11993582 20.83287408 -0.13359443 22.75927734 -0.15087891 C25.52445252 -0.17507241 28.289426 -0.18647036 31.0546875 -0.1953125 C31.9193161 -0.20563507 32.7839447 -0.21595764 33.67477417 -0.22659302 C35.78453521 -0.22699106 37.89380718 -0.12265243 40 0 C40.66 0.66 41.32 1.32 42 2 C32.43 2 22.86 2 13 2 C13 2.66 13 3.32 13 4 C8.07872966 4.16682272 4.49656104 4.24828052 0 2 C0 1.34 0 0.68 0 0 Z " fill="#5876B3" transform="translate(98,16)"/>
<path d="M0 0 C6.30422746 1.23009316 9.51384665 4.88521441 13 10 C16.69149704 17.24001357 17.18338738 25.33391986 15 33.125 C14.67 34.07375 14.34 35.0225 14 36 C12.76897008 32.30691024 13.12824848 29.11949288 13.4375 25.3125 C13.48970703 24.61060547 13.54191406 23.90871094 13.59570312 23.18554688 C13.72507865 21.45661946 13.86182531 19.72824645 14 18 C12.02 18.99 12.02 18.99 10 20 C9.80508548 18.54263913 9.61930642 17.08405407 9.4375 15.625 C9.33308594 14.81289062 9.22867187 14.00078125 9.12109375 13.1640625 C9 11 9 11 10 9 C9.360625 8.731875 8.72125 8.46375 8.0625 8.1875 C6 7 6 7 5 4 C4.34 3.835 3.68 3.67 3 3.5 C2.34 3.335 1.68 3.17 1 3 C0.67 2.01 0.34 1.02 0 0 Z " fill="#444D85" transform="translate(279,125)"/>
<path d="M0 0 C1.98 0 3.96 0 6 0 C6.25523437 0.81404297 6.25523437 0.81404297 6.515625 1.64453125 C8.03633638 6.14844107 8.03633638 6.14844107 10.8125 9.9375 C13.51664335 11.25094106 16.02565724 11.6620065 19 12 C15.2532802 14.4978132 13.53092988 14.2009212 9.22265625 13.60546875 C5.73443514 12.65525034 4.13145147 10.8419353 2 8 C0.50524188 5.01048377 0 3.3530811 0 0 Z " fill="#57619A" transform="translate(518,153)"/>
<path d="M0 0 C1.65 0 3.3 0 5 0 C5.24234375 0.54269531 5.4846875 1.08539063 5.734375 1.64453125 C8.26100428 7.28309325 8.26100428 7.28309325 13 11 C16.15118325 11.72045367 16.15118325 11.72045367 19 12 C15.23688279 14.5087448 13.54003369 14.13967945 9.22265625 13.54296875 C5.21927048 12.56498875 2.94947414 10.40160469 0.6875 7.0625 C-0.12808842 4.61573474 -0.14235449 2.5623809 0 0 Z " fill="#5E6598" transform="translate(109,153)"/>
<path d="M0 0 C1.65 0 3.3 0 5 0 C5.18433594 0.61488281 5.36867188 1.22976562 5.55859375 1.86328125 C7.30930547 6.923834 7.30930547 6.923834 11.26953125 10.265625 C13.5064022 10.98424181 15.69105195 11.57077248 18 12 C18 12.33 18 12.66 18 13 C8.09305994 13.62460568 8.09305994 13.62460568 3.9375 11.25 C0.65404252 7.43695261 -0.28122833 5.06210987 0 0 Z " fill="#555B92" transform="translate(439,153)"/>
<path d="M0 0 C0.66 0.33 1.32 0.66 2 1 C1.3503125 1.5878125 1.3503125 1.5878125 0.6875 2.1875 C-2.16249237 5.24860292 -4 7.75829427 -4 12 C-5.33333333 13.33333333 -6.66666667 14.66666667 -8 16 C-8.29862047 18.04768324 -8.37735186 20.0581551 -8.4609375 22.125 C-9 24 -9 24 -11.0390625 25.25 C-11.68617187 25.4975 -12.33328125 25.745 -13 26 C-12.96140049 15.67463057 -9.77222753 9.70356505 -2.625 2.4375 C-1.325625 1.2309375 -1.325625 1.2309375 0 0 Z " fill="#688CD2" transform="translate(79,24)"/>
<path d="M0 0 C3.96 1.98 7.92 3.96 12 6 C12 12.93 12 19.86 12 27 C9.42838542 28.26953125 6.85677083 29.5390625 4.28515625 30.80859375 C2.09471096 31.80525394 2.09471096 31.80525394 1 33 C-0.66617115 33.04063832 -2.33388095 33.042721 -4 33 C-3.67 32.34 -3.34 31.68 -3 31 C-1.68 31 -0.36 31 1 31 C1.33 29.68 1.66 28.36 2 27 C4.97 26.67 7.94 26.34 11 26 C11 19.73 11 13.46 11 7 C6.545 6.01 6.545 6.01 2 5 C1.34 3.35 0.68 1.7 0 0 Z " fill="#CAD3E9" transform="translate(95,41)"/>
<path d="M0 0 C-0.66 0 -1.32 0 -2 0 C-3.53924548 2.96854486 -4.74646003 5.86615008 -6 9 C0.27 9 6.54 9 13 9 C12.67 7.68 12.34 6.36 12 5 C12.66 5.33 13.32 5.66 14 6 C14 7.32 14 8.64 14 10 C5.75 10 -2.5 10 -11 10 C-10.01221524 5.06107618 -9.26400276 3.56073029 -6 0 C-3.50907189 -1.24546405 -2.58919267 -0.7767578 0 0 Z " fill="#6F73A1" transform="translate(450,131)"/>
<path d="M0 0 C6.6 0 13.2 0 20 0 C20 0.66 20 1.32 20 2 C19.01 2 18.02 2 17 2 C17 19.49 17 36.98 17 55 C16.67 55 16.34 55 16 55 C15.67 37.51 15.34 20.02 15 2 C10.05 1.67 5.1 1.34 0 1 C0 0.67 0 0.34 0 0 Z " fill="#6B77B7" transform="translate(32,82)"/>
<path d="M0 0 C0.99 0.33 1.98 0.66 3 1 C2.360625 1.763125 1.72125 2.52625 1.0625 3.3125 C-1.14232781 5.88246713 -1.14232781 5.88246713 -2 9 C3.94 9.33 9.88 9.66 16 10 C16.33 9.34 16.66 8.68 17 8 C17 8.99 17 9.98 17 11 C8.75 11 0.5 11 -8 11 C-6.91910497 5.59552487 -5.98080159 4.49533798 -2 1 C-1.34 0.67 -0.68 0.34 0 0 Z " fill="#757BAC" transform="translate(117,130)"/>
<path d="M0 0 C-0.804375 0.763125 -1.60875 1.52625 -2.4375 2.3125 C-5.16799024 4.79430898 -5.16799024 4.79430898 -6 8 C-0.06 8.33 5.88 8.66 12 9 C12.33 8.01 12.66 7.02 13 6 C13 7.32 13 8.64 13 10 C4.75 10 -3.5 10 -12 10 C-10.91930212 4.59651059 -10.0311625 3.45528214 -6 0 C-3 -1 -3 -1 0 0 Z " fill="#6E72A1" transform="translate(530,131)"/>
<path d="M0 0 C0.33 0.99 0.66 1.98 1 3 C-0.65 3 -2.3 3 -4 3 C-4 13.56 -4 24.12 -4 35 C-4.33 35 -4.66 35 -5 35 C-5.33781115 30.81284871 -5.6694485 26.62523015 -6 22.4375 C-6.09539062 21.25607422 -6.19078125 20.07464844 -6.2890625 18.85742188 C-6.73101905 13.22247585 -7.1328126 7.65283608 -7 2 C-4.69 1.34 -2.38 0.68 0 0 Z " fill="#7F9BDA" transform="translate(95,38)"/>
<path d="M0 0 C0.99 0 1.98 0 3 0 C3 1.32 3 2.64 3 4 C11.25 4 19.5 4 28 4 C27.67 4.66 27.34 5.32 27 6 C16.11 6.495 16.11 6.495 5 7 C5 7.66 5 8.32 5 9 C4.34 9 3.68 9 3 9 C2.896875 8.360625 2.79375 7.72125 2.6875 7.0625 C2.460625 6.381875 2.23375 5.70125 2 5 C1.01 4.67 0.02 4.34 -1 4 C-0.67 2.68 -0.34 1.36 0 0 Z " fill="#F8F7FC" transform="translate(435,137)"/>
<path d="M0 0 C1.051875 1.2684375 1.051875 1.2684375 2.125 2.5625 C4.74545616 5.30331497 4.74545616 5.30331497 7.9375 5.0625 C11.41392393 3.85639374 14.04779744 2.17900665 17 0 C15.16273147 4.76065714 12.04250778 5.8689477 7.62109375 7.9609375 C4.3310537 9.26518587 1.51896752 9.77050212 -2 10 C-2.66 9.01 -3.32 8.02 -4 7 C-2.68 4.69 -1.36 2.38 0 0 Z " fill="#314086" transform="translate(83,107)"/>
<path d="M0 0 C16.07354785 -0.75344756 16.07354785 -0.75344756 23 4 C23.99 5.485 23.99 5.485 25 7 C23.35 7.99 21.7 8.98 20 10 C19.484375 9.236875 18.96875 8.47375 18.4375 7.6875 C13.35930986 2.08846985 7.19182495 1.4729318 0 1 C0 0.67 0 0.34 0 0 Z " fill="#6E70A4" transform="translate(338,114)"/>
<path d="M0 0 C1.32 0 2.64 0 4 0 C4 8.91 4 17.82 4 27 C2.68 26.67 1.36 26.34 0 26 C0.66 26 1.32 26 2 26 C1.67 18.74 1.34 11.48 1 4 C0.01 4.495 0.01 4.495 -1 5 C-0.67 3.35 -0.34 1.7 0 0 Z " fill="#525C92" transform="translate(607,89)"/>
<path d="M0 0 C4.58566257 1.12762194 8.10165969 3.03218356 11.8125 5.9375 C12.1425 6.5975 12.4725 7.2575 12.8125 7.9375 C11.1625 8.5975 9.5125 9.2575 7.8125 9.9375 C6.9875 9.174375 6.1625 8.41125 5.3125 7.625 C1.76833932 4.64044364 -1.80860717 3.37196489 -6.1875 1.9375 C-3.1875 -0.0625 -3.1875 -0.0625 0 0 Z " fill="#6B70A9" transform="translate(308.1875,115.0625)"/>
<path d="M0 0 C2.475 0.495 2.475 0.495 5 1 C5 5.95 5 10.9 5 16 C3.35 16 1.7 16 0 16 C0 10.72 0 5.44 0 0 Z " fill="#6871BA" transform="translate(208,117)"/>
<path d="M0 0 C0.99 0 1.98 0 3 0 C1.37689982 5.95136732 -3.02438601 10.16637841 -8.16796875 13.3359375 C-13.3543883 16 -13.3543883 16 -16 16 C-16 15.34 -16 14.68 -16 14 C-14.390625 12.88671875 -14.390625 12.88671875 -12.25 11.6875 C-8.66121558 9.56081294 -6.55624762 7.31365432 -4 4 C-3.01 4 -2.02 4 -1 4 C-0.67 2.68 -0.34 1.36 0 0 Z " fill="#5C639E" transform="translate(289,162)"/>
<path d="M0 0 C7.23549488 0.68259386 7.23549488 0.68259386 10 4 C10.99 4.33 11.98 4.66 13 5 C13 5.99 13 6.98 13 8 C15.475 8.99 15.475 8.99 18 10 C17.814375 10.7425 17.62875 11.485 17.4375 12.25 C17.00796892 14.94990963 17.14877026 16.44631077 18 19 C17.34 19 16.68 19 16 19 C15.79246094 18.41992188 15.58492188 17.83984375 15.37109375 17.2421875 C12.16213707 9.10566972 7.46374519 5.29730784 0 1 C0 0.67 0 0.34 0 0 Z " fill="#727BBF" transform="translate(272,124)"/>
<path d="M0 0 C1.32 0.66 2.64 1.32 4 2 C2.68 2.33 1.36 2.66 0 3 C-0.33 17.85 -0.66 32.7 -1 48 C-1.99 48 -2.98 48 -4 48 C-3.67 47.01 -3.34 46.02 -3 45 C-2.95031943 42.03572626 -2.95664606 39.0954805 -3.0078125 36.1328125 C-3.02533117 34.34245361 -3.04223923 32.55208866 -3.05859375 30.76171875 C-3.08953952 27.94172411 -3.12504877 25.12203218 -3.17138672 22.30224609 C-3.21379499 19.5790634 -3.23718693 16.85623569 -3.2578125 14.1328125 C-3.27643341 13.29307892 -3.29505432 12.45334534 -3.3142395 11.58816528 C-3.33489946 6.85860066 -2.99742722 3.89695128 0 0 Z " fill="#F7F7FE" transform="translate(606,131)"/>
<path d="M0 0 C1 3 1 3 0.1796875 5.26953125 C-6.35047138 17.99747566 -6.35047138 17.99747566 -11.3125 19.875 C-11.869375 19.91625 -12.42625 19.9575 -13 20 C-13 19.01 -13 18.02 -13 17 C-12.01 17 -11.02 17 -10 17 C-9.67 15.68 -9.34 14.36 -9 13 C-8.34 13.33 -7.68 13.66 -7 14 C-6.690625 12.906875 -6.38125 11.81375 -6.0625 10.6875 C-4.66176577 5.82612827 -3.68531147 3.44754944 0 0 Z " fill="#32408B" transform="translate(169,69)"/>
<path d="M0 0 C0.33 0 0.66 0 1 0 C1 1.98 1 3.96 1 6 C5.21752518 6.02473064 9.43501186 6.04287453 13.65258789 6.05493164 C15.08716568 6.05995842 16.52173836 6.06678079 17.95629883 6.07543945 C20.01905582 6.08757752 22.08174504 6.09324486 24.14453125 6.09765625 C26.00621948 6.10551147 26.00621948 6.10551147 27.90551758 6.11352539 C31.03708218 6.14388083 31.03708218 6.14388083 34 5 C33.67 5.99 33.34 6.98 33 8 C28.4793661 8.07406517 23.959084 8.12856045 19.43798828 8.16479492 C17.89951426 8.17989711 16.36108339 8.20038046 14.82275391 8.22631836 C12.61349859 8.26264074 10.40481152 8.27971119 8.1953125 8.29296875 C7.16085495 8.31619453 7.16085495 8.31619453 6.10549927 8.33988953 C4.16455078 8.34057617 4.16455078 8.34057617 1 8 C-1 5 -1 5 -0.625 2.3125 C-0.41875 1.549375 -0.2125 0.78625 0 0 Z " fill="#C6CDE9" transform="translate(111,65)"/>
<path d="M0 0 C0.78375 0.04125 1.5675 0.0825 2.375 0.125 C2.705 0.785 3.035 1.445 3.375 2.125 C2.385 2.62 2.385 2.62 1.375 3.125 C1.045 4.115 0.715 5.105 0.375 6.125 C-0.285 6.125 -0.945 6.125 -1.625 6.125 C-1.625 6.785 -1.625 7.445 -1.625 8.125 C-3.275 8.785 -4.925 9.445 -6.625 10.125 C-7.285 9.465 -7.945 8.805 -8.625 8.125 C-3.43269231 0.16346154 -3.43269231 0.16346154 0 0 Z " fill="#6792E2" transform="translate(83.625,23.875)"/>
<path d="M0 0 C1.47906892 -0.02689216 2.95827483 -0.04634621 4.4375 -0.0625 C5.26121094 -0.07410156 6.08492187 -0.08570312 6.93359375 -0.09765625 C9 0 9 0 10 1 C10.09932392 3.31074168 10.12969618 5.62462942 10.125 7.9375 C10.12757813 9.20464844 10.13015625 10.47179687 10.1328125 11.77734375 C10 15 10 15 9 17 C7.02 17 5.04 17 3 17 C4 14 4 14 7 12 C7.58348752 9.3443272 7.58348752 9.3443272 7.6875 6.375 C7.75324219 5.37210937 7.81898438 4.36921875 7.88671875 3.3359375 C7.92410156 2.56507812 7.96148437 1.79421875 8 1 C5.69 1.33 3.38 1.66 1 2 C0.67 1.34 0.34 0.68 0 0 Z " fill="#D6DBF3" transform="translate(199,117)"/>
<path d="M0 0 C0 1.32 0 2.64 0 4 C-0.99 4 -1.98 4 -3 4 C-3.33 11.59 -3.66 19.18 -4 27 C-4.33 27 -4.66 27 -5 27 C-5 18.42 -5 9.84 -5 1 C-6.65 1.66 -8.3 2.32 -10 3 C-12.3125 2.625 -12.3125 2.625 -14 2 C-9.35150485 -0.3992233 -5.08913926 -0.19957409 0 0 Z " fill="#9699C6" transform="translate(201,90)"/>
<path d="M0 0 C1.32 0 2.64 0 4 0 C4.02684679 2.64590014 4.04676357 5.29153096 4.0625 7.9375 C4.07087891 8.69224609 4.07925781 9.44699219 4.08789062 10.22460938 C4.09652441 12.14994313 4.05224333 14.07535581 4 16 C3 17 3 17 0.4375 17.0625 C-0.366875 17.041875 -1.17125 17.02125 -2 17 C-1.67 15.35 -1.34 13.7 -1 12 C-0.67 12.66 -0.34 13.32 0 14 C0.66 14 1.32 14 2 14 C1.85795259 12.41632253 1.71119847 10.83306682 1.5625 9.25 C1.48128906 8.36828125 1.40007813 7.4865625 1.31640625 6.578125 C1.03761535 4.30649548 0.61209423 2.20148177 0 0 Z " fill="#586096" transform="translate(619,116)"/>
<path d="M0 0 C8.25 0 16.5 0 25 0 C25 0.66 25 1.32 25 2 C19.39194023 3.0162256 14.23502748 2.96017114 8.5625 2.5625 C7.32209961 2.48418945 7.32209961 2.48418945 6.05664062 2.40429688 C4.03734522 2.27590237 2.01860371 2.13884576 0 2 C0 1.34 0 0.68 0 0 Z " fill="#F7F7FE" transform="translate(519,141)"/>
<path d="M0 0 C2.3125 -0.25 2.3125 -0.25 5 0 C7.91064587 2.80284417 9.05051718 6.12294514 10 10 C9.625 12.875 9.625 12.875 9 15 C8.34 15 7.68 15 7 15 C6.74605469 14.33613281 6.49210937 13.67226562 6.23046875 12.98828125 C4.45269596 8.42732859 2.7297706 4.0946559 0 0 Z " fill="#6E7AC1" transform="translate(479,125)"/>
<path d="M0 0 C0.99 0.33 1.98 0.66 3 1 C2.75591511 4.295146 1.79566695 5.19946798 -0.625 7.5625 C-3.8969224 10.10908056 -7.07328509 11.66639871 -11 13 C-11.99 12.67 -12.98 12.34 -14 12 C-12.98679688 11.45472656 -12.98679688 11.45472656 -11.953125 10.8984375 C-6.54900558 7.85276326 -2.90096197 5.53820012 0 0 Z " fill="#60658A" transform="translate(152,167)"/>
<path d="M0 0 C5.875 2.875 5.875 2.875 7 4 C6.6875 7.5 6.6875 7.5 6 11 C5.01 11.495 5.01 11.495 4 12 C3.13624104 10.38007835 2.28424146 8.75388139 1.4375 7.125 C0.72400391 5.76761719 0.72400391 5.76761719 -0.00390625 4.3828125 C-0.33261719 3.59648438 -0.66132812 2.81015625 -1 2 C-0.67 1.34 -0.34 0.68 0 0 Z " fill="#616AAD" transform="translate(560,123)"/>
<path d="M0 0 C5.59282842 1.36410449 8.91193811 4.15383526 13 8 C12.67 8.66 12.34 9.32 12 10 C11.01 10 10.02 10 9 10 C9 9.34 9 8.68 9 8 C7.35 7.67 5.7 7.34 4 7 C4 6.01 4 5.02 4 4 C2.68 3.34 1.36 2.68 0 2 C0 1.34 0 0.68 0 0 Z " fill="#575E9A" transform="translate(473,117)"/>
<path d="M0 0 C0.33 0 0.66 0 1 0 C1 7.59 1 15.18 1 23 C0.34 23 -0.32 23 -1 23 C-1.22527296 19.54254978 -1.42733544 16.08412975 -1.625 12.625 C-1.68945312 11.64015625 -1.75390625 10.6553125 -1.8203125 9.640625 C-1.871875 8.69960937 -1.9234375 7.75859375 -1.9765625 6.7890625 C-2.02893066 5.91975098 -2.08129883 5.05043945 -2.13525391 4.15478516 C-2 2 -2 2 0 0 Z " fill="#6775CB" transform="translate(608,92)"/>
<path d="M0 0 C-1.78978448 5.36935343 -6.95166926 7.97583463 -11.75 10.375 C-14 11 -14 11 -17 10 C-16.40832031 9.61328125 -15.81664062 9.2265625 -15.20703125 8.828125 C-11.7258102 6.53381292 -8.34262557 4.28303851 -5.125 1.625 C-3 0 -3 0 0 0 Z " fill="#595C8D" transform="translate(565,169)"/>
<path d="M0 0 C0.33 0 0.66 0 1 0 C1.33 11.55 1.66 23.1 2 35 C2.66 35.33 3.32 35.66 4 36 C4 36.66 4 37.32 4 38 C2.68 38 1.36 38 0 38 C0 25.46 0 12.92 0 0 Z " fill="#6C72B4" transform="translate(364,141)"/>
<path d="M0 0 C4.82054773 4.29158493 6.02902937 8.73806228 7 15 C6.95485148 18.39968335 6.60206263 21.65601358 6 25 C4.35 25 2.7 25 1 25 C2.32 24.67 3.64 24.34 5 24 C4.91239411 21.93673023 4.80420727 19.8743284 4.6875 17.8125 C4.60048828 16.08966797 4.60048828 16.08966797 4.51171875 14.33203125 C3.9716979 10.8157123 2.93046659 8.93591794 1 6 C0.3125 2.6875 0.3125 2.6875 0 0 Z " fill="#353C67" transform="translate(486,127)"/>
<path d="M0 0 C0.66 0.33 1.32 0.66 2 1 C0.48954741 2.51045259 -1.03351637 4.00830865 -2.5625 5.5 C-4.99991661 7.7463376 -4.99991661 7.7463376 -6 10 C-10.24846075 9.52794881 -12.26819288 7.11122478 -15 4 C-15 3.34 -15 2.68 -15 2 C-12.95027548 3.02486226 -10.92428655 4.04359259 -8.9375 5.1875 C-6.84615294 6.31455354 -6.84615294 6.31455354 -4 5 C-3.30062468 3.68352881 -2.63270867 2.34977849 -2 1 C-1.34 0.67 -0.68 0.34 0 0 Z " fill="#F0F3FC" transform="translate(325,118)"/>
<path d="M0 0 C6.93 0 13.86 0 21 0 C21 0.99 21 1.98 21 3 C20.34 3 19.68 3 19 3 C19 4.32 19 5.64 19 7 C18.01 6.67 17.02 6.34 16 6 C16 4.35 16 2.7 16 1 C10.72 1 5.44 1 0 1 C0 0.67 0 0.34 0 0 Z " fill="#6D6E93" transform="translate(469,157)"/>
<path d="M0 0 C0.83080078 -0.00257812 1.66160156 -0.00515625 2.51757812 -0.0078125 C3.37673828 -0.00007813 4.23589844 0.00765625 5.12109375 0.015625 C5.98412109 0.00789063 6.84714844 0.00015625 7.73632812 -0.0078125 C8.56583984 -0.00523438 9.39535156 -0.00265625 10.25 0 C11.00482666 0.00225586 11.75965332 0.00451172 12.53735352 0.00683594 C14.55859375 0.265625 14.55859375 0.265625 17.55859375 2.265625 C15.16268337 2.29274851 12.76708418 2.3125232 10.37109375 2.328125 C9.69755859 2.33650391 9.02402344 2.34488281 8.33007812 2.35351562 C4.60425244 2.37169038 1.17978955 2.15861892 -2.44140625 1.265625 C-2.44140625 1.925625 -2.44140625 2.585625 -2.44140625 3.265625 C-5.41140625 2.770625 -5.41140625 2.770625 -8.44140625 2.265625 C-5.50088237 0.58675467 -3.37723545 0.01007808 0 0 Z " fill="#EEEDFD" transform="translate(116.44140625,114.734375)"/>
<path d="M0 0 C0.99 0.66 1.98 1.32 3 2 C3 3.32 3 4.64 3 6 C3.66 6 4.32 6 5 6 C5 7.65 5 9.3 5 11 C3.1875 10.875 3.1875 10.875 1 10 C-2 4.96428571 -2 4.96428571 -2 2 C-1.34 2 -0.68 2 0 2 C0 1.34 0 0.68 0 0 Z " fill="#6F77C4" transform="translate(154,126)"/>
<path d="M0 0 C3.04190863 -0.05421223 6.08283999 -0.09377548 9.125 -0.125 C9.9809375 -0.14175781 10.836875 -0.15851563 11.71875 -0.17578125 C16.56587293 -0.21306681 20.44707905 0.10419357 25 2 C24.34 2.66 23.68 3.32 23 4 C19.46782421 3.67889311 16.36550494 3.12183498 13 2 C10.77425665 1.77548542 8.54418481 1.59217122 6.3125 1.4375 C5.13300781 1.35371094 3.95351562 1.26992187 2.73828125 1.18359375 C1.83464844 1.12300781 0.93101563 1.06242187 0 1 C0 0.67 0 0.34 0 0 Z " fill="#626394" transform="translate(118,114)"/>
<path d="M0 0 C0.99 0.33 1.98 0.66 3 1 C3.33 2.65 3.66 4.3 4 6 C3.01 6.495 3.01 6.495 2 7 C1.34 6.67 0.68 6.34 0 6 C-1.49756871 5.90500497 -2.99942932 5.87012802 -4.5 5.875 C-5.2940625 5.87242187 -6.088125 5.86984375 -6.90625 5.8671875 C-9.05918534 5.86722004 -9.05918534 5.86722004 -11 7 C-11 5.68 -11 4.36 -11 3 C-10.06027344 3.05220703 -10.06027344 3.05220703 -9.1015625 3.10546875 C-8.28429687 3.13253906 -7.46703125 3.15960938 -6.625 3.1875 C-5.40683594 3.23970703 -5.40683594 3.23970703 -4.1640625 3.29296875 C-3.44992187 3.19628906 -2.73578125 3.09960938 -2 3 C-1.34 2.01 -0.68 1.02 0 0 Z " fill="#D6D5D8" transform="translate(378,128)"/>
<path d="M0 0 C5.26170694 1.41167747 8.72171358 3.74850232 13 7 C12.67 7.66 12.34 8.32 12 9 C11.01 9 10.02 9 9 9 C8.67 9.66 8.34 10.32 8 11 C6.5 9.8125 6.5 9.8125 5 8 C4.8125 5.3125 4.8125 5.3125 5 3 C3.35 2.67 1.7 2.34 0 2 C0 1.34 0 0.68 0 0 Z " fill="#565F94" transform="translate(551,116)"/>
<path d="M0 0 C2.31 0 4.62 0 7 0 C6.01 0.33 5.02 0.66 4 1 C4 1.99 4 2.98 4 4 C6.64 4 9.28 4 12 4 C12 4.33 12 4.66 12 5 C5.07 5 -1.86 5 -9 5 C-9 4.67 -9 4.34 -9 4 C-7.88625 3.855625 -6.7725 3.71125 -5.625 3.5625 C-2.17857953 3.21627965 -2.17857953 3.21627965 0 2 C0 1.34 0 0.68 0 0 Z " fill="#6C6C8D" transform="translate(148,153)"/>
<path d="M0 0 C0.66 0.33 1.32 0.66 2 1 C0.4972742 5.20763224 -2.23332995 6.8027758 -6 9 C-6.66 9 -7.32 9 -8 9 C-7.75 6.625 -7.75 6.625 -7 4 C-5.125 2.8125 -5.125 2.8125 -3 2 C-2.01 1.34 -1.02 0.68 0 0 Z " fill="#4D64C4" transform="translate(98,104)"/>
<path d="M0 0 C5.65974964 6.68879503 5.24310205 13.65349629 5 22 C4.67 22 4.34 22 4 22 C4 18.7 4 15.4 4 12 C3.34 12 2.68 12 2 12 C0.70756464 7.8803623 -0.26252625 4.33168317 0 0 Z " fill="#DBDFF5" transform="translate(482,130)"/>
<path d="M0 0 C1.65 0 3.3 0 5 0 C5 2.97 5 5.94 5 9 C3.68 8.34 2.36 7.68 1 7 C0.25 3.375 0.25 3.375 0 0 Z " fill="#6975B9" transform="translate(109,153)"/>
<path d="M0 0 C2.00841268 0.01421885 4.01537247 0.13420475 6.01953125 0.265625 C5.23578125 0.78125 4.45203125 1.296875 3.64453125 1.828125 C0.46358877 4.7818573 -0.09540568 7.08169048 -0.98046875 11.265625 C-2.98046875 7.515625 -2.98046875 7.515625 -2.98046875 5.265625 C-3.64046875 4.935625 -4.30046875 4.605625 -4.98046875 4.265625 C-3.72152968 1.74774686 -2.88459378 0.38688832 0 0 Z " fill="#676B95" transform="translate(328.98046875,131.734375)"/>
<path d="M0 0 C0.99 0.33 1.98 0.66 3 1 C2.2265625 1.7115625 2.2265625 1.7115625 1.4375 2.4375 C-0.73486467 6.30997616 0.24666846 9.75229924 1 14 C0.34 14 -0.32 14 -1 14 C-1 13.34 -1 12.68 -1 12 C-1.66 12 -2.32 12 -3 12 C-3.08090971 10.37581255 -3.13914995 8.75048255 -3.1875 7.125 C-3.22230469 6.22007813 -3.25710937 5.31515625 -3.29296875 4.3828125 C-3.19628906 3.59648438 -3.09960938 2.81015625 -3 2 C-2.01 1.34 -1.02 0.68 0 0 Z " fill="#565B94" transform="translate(245,100)"/>
<path d="M0 0 C1.32 0 2.64 0 4 0 C4.66 0.66 5.32 1.32 6 2 C8.65537372 2.56520003 11.29144713 2.73788198 14 3 C14 3.33 14 3.66 14 4 C6.16992004 4.79773542 -1.19636521 5.14500285 -9 4 C-9 3.67 -9 3.34 -9 3 C-4.545 2.505 -4.545 2.505 0 2 C0 1.34 0 0.68 0 0 Z " fill="#CFCDCB" transform="translate(249,177)"/>
<path d="M0 0 C1.18851563 0.28746094 2.37703125 0.57492188 3.6015625 0.87109375 C4.51679687 1.09925781 5.43203125 1.32742187 6.375 1.5625 C3.11639091 3.73490606 2.55449197 3.79814158 -1.125 3.375 C-1.8984375 3.29894531 -2.671875 3.22289062 -3.46875 3.14453125 C-5.97246175 2.4687105 -6.97666485 1.52253956 -8.625 -0.4375 C-5.54978317 -1.97510842 -3.27824882 -0.80349236 0 0 Z " fill="#6E72A3" transform="translate(530.625,163.4375)"/>
<path d="M0 0 C0.33 0 0.66 0 1 0 C1.54470737 7.9587799 0.48901845 13.81947541 -3 21 C-3.33 21 -3.66 21 -4 21 C-4 19.35 -4 17.7 -4 16 C-3.34 16 -2.68 16 -2 16 C-2 13.03 -2 10.06 -2 7 C-1.67 7 -1.34 7 -1 7 C-0.67 4.69 -0.34 2.38 0 0 Z " fill="#444C7C" transform="translate(52,128)"/>
<path d="M0 0 C2.6881249 -0.08164159 5.373723 -0.14079668 8.0625 -0.1875 C8.81466797 -0.21263672 9.56683594 -0.23777344 10.34179688 -0.26367188 C15.66631856 -0.33282151 19.24346434 0.59330666 24 3 C21.40656154 4.29671923 20.41917285 3.78511203 17.625 3.125 C11.78190832 1.86070531 5.95710503 1.38895188 0 1 C0 0.67 0 0.34 0 0 Z " fill="#5B5E87" transform="translate(377,114)"/>
<path d="M0 0 C0.99 0.33 1.98 0.66 3 1 C3 2.98 3 4.96 3 7 C2.01 7.33 1.02 7.66 0 8 C-0.73323796 10.01508358 -0.73323796 10.01508358 -1 12 C-1.66 11.67 -2.32 11.34 -3 11 C-2.01 7.37 -1.02 3.74 0 0 Z " fill="#727BC2" transform="translate(47,137)"/>
<path d="M0 0 C0.99 0.33 1.98 0.66 3 1 C3 3.64 3 6.28 3 9 C1.68 9 0.36 9 -1 9 C-1.125 2.25 -1.125 2.25 0 0 Z " fill="#6B75C1" transform="translate(158,142)"/>
<path d="M0 0 C-2.90673575 4.22797927 -2.90673575 4.22797927 -5 6 C-8.8125 6.375 -8.8125 6.375 -12 6 C-8.10961402 1.97546278 -5.76748744 -0.31175608 0 0 Z " fill="#5A61AB" transform="translate(107,69)"/>
<path d="M0 0 C2.8185085 1.40925425 3.36153834 3.4633114 4.40234375 6.32421875 C5.6235011 11.79149187 5.21112195 17.43263601 5 23 C4.67 23 4.34 23 4 23 C3.96261719 22.13117188 3.92523438 21.26234375 3.88671875 20.3671875 C3.53336118 14.17303724 3.20891436 9.44120261 0 4 C0 2.68 0 1.36 0 0 Z " fill="#D2D7F4" transform="translate(284,134)"/>
<path d="M0 0 C8.35010941 0.35010941 8.35010941 0.35010941 11.0625 3.0625 C11.371875 3.701875 11.68125 4.34125 12 5 C6.72209903 5.50265724 4.13774748 4.25108731 0 1 C0 0.67 0 0.34 0 0 Z " fill="#636CA7" transform="translate(394,117)"/>
<path d="M0 0 C2.6444477 3.04964533 3.44204547 5.17816893 3.75 9.1875 C3.82734375 10.06792969 3.9046875 10.94835937 3.984375 11.85546875 C3.98953125 12.56316406 3.9946875 13.27085938 4 14 C3 15 3 15 0.4375 15.0625 C-0.366875 15.041875 -1.17125 15.02125 -2 15 C-1.01 14.67 -0.02 14.34 1 14 C1.27752243 7.71578798 1.27752243 7.71578798 -1 2 C-0.67 1.34 -0.34 0.68 0 0 Z " fill="#3E4673" transform="translate(288,97)"/>
<path d="M0 0 C1.71017726 2.5652659 2.90417811 4.87960965 4.125 7.6875 C4.47820312 8.49574219 4.83140625 9.30398437 5.1953125 10.13671875 C5.46085938 10.75160156 5.72640625 11.36648437 6 12 C3.03 11.505 3.03 11.505 0 11 C-1.37432457 7.18243176 -0.67975039 3.92744671 0 0 Z " fill="#464E83" transform="translate(241,147)"/>
<path d="M0 0 C0.33 0 0.66 0 1 0 C1 3.63 1 7.26 1 11 C-0.98 11.99 -0.98 11.99 -3 13 C-3.66 12.34 -4.32 11.68 -5 11 C-3.66666667 9 -2.33333333 7 -1 5 C-0.61500109 3.34450469 -0.27206865 1.6777567 0 0 Z " fill="#3F4779" transform="translate(571,140)"/>
<path d="M0 0 C0.99 0.66 1.98 1.32 3 2 C2.1875 5.4375 2.1875 5.4375 1 9 C0.01 9.33 -0.98 9.66 -2 10 C-2 7.36 -2 4.72 -2 2 C-1.34 2 -0.68 2 0 2 C0 1.34 0 0.68 0 0 Z " fill="#737EC9" transform="translate(568,141)"/>
<path d="M0 0 C3.1414436 1.83250877 6.22602027 3.63698023 9 6 C9 6.66 9 7.32 9 8 C7.02 8.33 5.04 8.66 3 9 C3 7.35 3 5.7 3 4 C2.34 3.67 1.68 3.34 1 3 C0.67 2.01 0.34 1.02 0 0 Z " fill="#ECEDF6" transform="translate(351,117)"/>
<path d="M0 0 C0.85276722 2.41707906 1.12087895 3.64003451 0.29296875 6.10546875 C-0.25423828 7.13607422 -0.25423828 7.13607422 -0.8125 8.1875 C-1.34810547 9.22970703 -1.34810547 9.22970703 -1.89453125 10.29296875 C-3 12 -3 12 -5 13 C-5 10.69 -5 8.38 -5 6 C-4.01 6.33 -3.02 6.66 -2 7 C-2 5.68 -2 4.36 -2 3 C-1.34 3 -0.68 3 0 3 C0 2.01 0 1.02 0 0 Z " fill="#444B7C" transform="translate(490,157)"/>
<path d="M0 0 C5.67023649 1.35005631 8.17957309 3.8157229 12 8 C11.67 8.66 11.34 9.32 11 10 C6.125 7.375 6.125 7.375 5 4 C4.34 3.835 3.68 3.67 3 3.5 C2.34 3.335 1.68 3.17 1 3 C0.67 2.01 0.34 1.02 0 0 Z " fill="#434B7C" transform="translate(279,125)"/>
<path d="M0 0 C1.98 0 3.96 0 6 0 C6.33 2.31 6.66 4.62 7 7 C6.01 7.33 5.02 7.66 4 8 C2.68 5.36 1.36 2.72 0 0 Z " fill="#6F79C6" transform="translate(400,122)"/>
<path d="M0 0 C5.46864457 1.01591421 10.76390013 2.07091057 16 4 C11.91556885 5.53166168 8.20544343 4.63081652 4 4 C4 3.34 4 2.68 4 2 C2.68 1.34 1.36 0.68 0 0 Z " fill="#565C8F" transform="translate(263,120)"/>
<path d="M0 0 C6.6 0 13.2 0 20 0 C20 0.66 20 1.32 20 2 C19.01 2 18.02 2 17 2 C16.67 3.32 16.34 4.64 16 6 C15.67 4.68 15.34 3.36 15 2 C10.05 1.67 5.1 1.34 0 1 C0 0.67 0 0.34 0 0 Z " fill="#7273A3" transform="translate(32,82)"/>
<path d="M0 0 C3.83520308 3.28731693 6.32465344 7.25147171 8 12 C7.67 12.66 7.34 13.32 7 14 C3.37988643 9.33195882 1.29322068 5.7607103 0 0 Z " fill="#2F3E80" transform="translate(162,30)"/>
<path d="M0 0 C1.32 0 2.64 0 4 0 C4 1.32 4 2.64 4 4 C3.01 4.495 3.01 4.495 2 5 C2 5.99 2 6.98 2 8 C0.68 8.33 -0.64 8.66 -2 9 C-1.34 6.03 -0.68 3.06 0 0 Z " fill="#747EC3" transform="translate(155,158)"/>
<path d="M0 0 C1.32 0.33 2.64 0.66 4 1 C4.309375 2.11375 4.61875 3.2275 4.9375 4.375 C5.82326483 7.7945155 5.82326483 7.7945155 7 10 C5.109375 9.78515625 5.109375 9.78515625 3 9 C1.953125 6.93359375 1.953125 6.93359375 1.25 4.4375 C1.00765625 3.61121094 0.7653125 2.78492188 0.515625 1.93359375 C0.34546875 1.29550781 0.1753125 0.65742188 0 0 Z " fill="#DFE4F4" transform="translate(233,148)"/>
<path d="M0 0 C1.32 0 2.64 0 4 0 C4.97551509 2.92654527 5.16478088 4.94654996 5.1875 8 C5.20167969 8.86625 5.21585937 9.7325 5.23046875 10.625 C5 13 5 13 3 16 C3.03480469 15.43152344 3.06960937 14.86304687 3.10546875 14.27734375 C3.30230592 8.66279774 2.55495317 5.00344995 0 0 Z " fill="#3A4C8D" transform="translate(81,91)"/>
<path d="M0 0 C0.99 0.33 1.98 0.66 3 1 C3.6875 3.0625 3.6875 3.0625 4 5 C4.33 5 4.66 5 5 5 C5 7.31 5 9.62 5 12 C2.2289312 9.65408148 1.47940716 7.85223799 0.8125 4.3125 C0.65394531 3.50425781 0.49539062 2.69601563 0.33203125 1.86328125 C0.22246094 1.24839844 0.11289063 0.63351563 0 0 Z " fill="#3C5590" transform="translate(64,66)"/>
<path d="M0 0 C-2.54782974 2.97246802 -5.45340883 4.41535288 -9 6 C-9.66 6 -10.32 6 -11 6 C-11 5.34 -11 4.68 -11 4 C-9.35546875 2.67578125 -9.35546875 2.67578125 -7.1875 1.3125 C-6.47980469 0.85488281 -5.77210938 0.39726562 -5.04296875 -0.07421875 C-3 -1 -3 -1 0 0 Z " fill="#5F628F" transform="translate(284,172)"/>
<path d="M0 0 C1.875 0.5 1.875 0.5 4 2 C4.98494554 4.65177645 5.45912382 7.20547307 6 10 C2.46413986 6.82679218 0.41421969 4.83256305 0 0 Z " fill="#7278C3" transform="translate(439,155)"/>
<path d="M0 0 C-0.33 2.31 -0.66 4.62 -1 7 C-2.70884005 5.37660195 -4.37446717 3.70680947 -6 2 C-6 1.34 -6 0.68 -6 0 C-3.50907189 -1.24546405 -2.58919267 -0.7767578 0 0 Z " fill="#C7C4C0" transform="translate(224,123)"/>
<path d="M0 0 C1.32 0.33 2.64 0.66 4 1 C2.9024777 3.99324263 2.32317108 4.84610901 -0.625 6.25 C-1.40875 6.4975 -2.1925 6.745 -3 7 C-2.38722388 4.03824877 -1.74627478 2.61941217 0 0 Z " fill="#5667CE" transform="translate(152,86)"/>
<path d="M0 0 C0 0.99 0 1.98 0 3 C0.99 3 1.98 3 3 3 C3 3.99 3 4.98 3 6 C-0.91211733 4.84414715 -3.8745041 3.64465038 -7 1 C-4.53721199 -0.231394 -2.7204945 -0.07159196 0 0 Z " fill="#6C88D4" transform="translate(103,40)"/>
<path d="M0 0 C0.61875 0.474375 1.2375 0.94875 1.875 1.4375 C6.16105676 3.58052838 10.26600709 3.73342564 15 4 C15 4.33 15 4.66 15 5 C4.44191344 6.33257403 4.44191344 6.33257403 0 5 C0 3.35 0 1.7 0 0 Z " fill="#D9DCEB" transform="translate(441,162)"/>
<path d="M0 0 C3.36720387 1.39332574 4.9859524 2.9789286 7 6 C6.401875 5.814375 5.80375 5.62875 5.1875 5.4375 C2.83591238 4.77906313 2.83591238 4.77906313 0 6 C-1 3 -1 3 0 0 Z " fill="#425AA5" transform="translate(155,24)"/>
<path d="M0 0 C1.23593891 3.70781672 0.5678132 4.67510253 -0.9375 8.1875 C-1.31777344 9.08855469 -1.69804688 9.98960937 -2.08984375 10.91796875 C-2.54037109 11.94857422 -2.54037109 11.94857422 -3 13 C-3.33 13 -3.66 13 -4 13 C-3.50269348 8.02693484 -2.44697666 4.36200187 0 0 Z " fill="#E6E8FB" transform="translate(46,137)"/>
<path d="M0 0 C0.66 0.33 1.32 0.66 2 1 C1.54625 1.4125 1.0925 1.825 0.625 2.25 C-1.0986372 3.90721867 -1.0986372 3.90721867 -1.875 6.0625 C-3.41329016 8.71177751 -5.15111923 9.10035344 -8 10 C-6.34908222 5.70761377 -3.26245434 3.1206085 0 0 Z " fill="#516A99" transform="translate(79,24)"/>
<path d="M0 0 C1.32 0.66 2.64 1.32 4 2 C1.47043472 5.0916909 -1.22454612 5.90931332 -5 7 C-3.35 4.69 -1.7 2.38 0 0 Z " fill="#B5B4B1" transform="translate(543,158)"/>
<path d="M0 0 C2.1875 0.3125 2.1875 0.3125 4 1 C3.01 2.98 2.02 4.96 1 7 C0.34 7 -0.32 7 -1 7 C-1 6.01 -1 5.02 -1 4 C-1.66 3.67 -2.32 3.34 -3 3 C-1.75 1.4375 -1.75 1.4375 0 0 Z " fill="#525787" transform="translate(369,133)"/>
<path d="M0 0 C0.66 0.33 1.32 0.66 2 1 C1.29445932 4.66881155 -0.27735506 7.70450534 -2 11 C-2.33 11 -2.66 11 -3 11 C-3.39253254 6.55129785 -2.15305957 3.85756507 0 0 Z " fill="#E4EAF8" transform="translate(563,158)"/>
<path d="M0 0 C1.32 0.33 2.64 0.66 4 1 C4 3.31 4 5.62 4 8 C2 6.25 2 6.25 0 4 C0 2.68 0 1.36 0 0 Z " fill="#C8C4C0" transform="translate(88,162)"/>
<path d="M0 0 C0.99 0 1.98 0 3 0 C3.125 5.75 3.125 5.75 2 8 C1.34 8 0.68 8 0 8 C0 5.36 0 2.72 0 0 Z " fill="#6A74C6" transform="translate(287,103)"/>
<path d="M0 0 C1.7074998 1.28062485 3.37373596 2.61767557 5 4 C5 4.66 5 5.32 5 6 C3.35 6.33 1.7 6.66 0 7 C-0.66 6.01 -1.32 5.02 -2 4 C-1.01 4 -0.02 4 1 4 C0.67 2.68 0.34 1.36 0 0 Z " fill="#4E5992" transform="translate(281,88)"/>
<path d="M0 0 C0.33 1.32 0.66 2.64 1 4 C-1.3125 5.5625 -1.3125 5.5625 -4 7 C-4.99 6.67 -5.98 6.34 -7 6 C-4.69 4.02 -2.38 2.04 0 0 Z " fill="#6D7098" transform="translate(478,172)"/>
<path d="M0 0 C0.33 0.99 0.66 1.98 1 3 C0.01 3.495 0.01 3.495 -1 4 C-0.67 4.66 -0.34 5.32 0 6 C-1.98 6.33 -3.96 6.66 -6 7 C-5.8125 5.1875 -5.8125 5.1875 -5 3 C-2.4375 1.25 -2.4375 1.25 0 0 Z " fill="#D6D5D2" transform="translate(264,159)"/>
<path d="M0 0 C5.94 1.485 5.94 1.485 12 3 C12 3.33 12 3.66 12 4 C8.37 4 4.74 4 1 4 C0.67 2.68 0.34 1.36 0 0 Z " fill="#555981" transform="translate(247,159)"/>
<path d="M0 0 C1.98 0.495 1.98 0.495 4 1 C3.625 3.4375 3.625 3.4375 3 6 C2.01 6.495 2.01 6.495 1 7 C-0.0625 4.625 -0.0625 4.625 -1 2 C-0.67 1.34 -0.34 0.68 0 0 Z " fill="#6B78C3" transform="translate(563,128)"/>
<path d="M0 0 C0.66 0.33 1.32 0.66 2 1 C1.34 1.66 0.68 2.32 0 3 C-0.78375 3.886875 -1.5675 4.77375 -2.375 5.6875 C-3.24125 6.450625 -4.1075 7.21375 -5 8 C-7.3125 7.8125 -7.3125 7.8125 -9 7 C-8.21625 6.7525 -7.4325 6.505 -6.625 6.25 C-3.61694992 4.8175952 -3.24509643 3.9690761 -2 1 C-1.34 0.67 -0.68 0.34 0 0 Z " fill="#BFC0C4" transform="translate(325,118)"/>
<path d="M0 0 C0.99 1.32 1.98 2.64 3 4 C2.38125 4.598125 1.7625 5.19625 1.125 5.8125 C-1.13676954 8.00811144 -1.13676954 8.00811144 -3 11 C-2.53199289 6.94393835 -2.12046792 3.53411321 0 0 Z " fill="#AEADAA" transform="translate(587,100)"/>
<path d="M0 0 C0 0.66 0 1.32 0 2 C-0.9590625 2.1546875 -0.9590625 2.1546875 -1.9375 2.3125 C-2.618125 2.539375 -3.29875 2.76625 -4 3 C-4.33 3.99 -4.66 4.98 -5 6 C-6.32 5.34 -7.64 4.68 -9 4 C-2.25 0 -2.25 0 0 0 Z " fill="#5874AA" transform="translate(90,19)"/>
<path d="M0 0 C0.66 0.99 1.32 1.98 2 3 C1.67 3.66 1.34 4.32 1 5 C-1.97 4.505 -1.97 4.505 -5 4 C-3.36587557 2.29159719 -2.13093906 1.06546953 0 0 Z " fill="#DDDDDC" transform="translate(137,176)"/>
<path d="M0 0 C0.99 0 1.98 0 3 0 C1.71480435 2.86697492 0.42870746 4.97607712 -2 7 C-2.66 7 -3.32 7 -4 7 C-3.67 6.01 -3.34 5.02 -3 4 C-2.34 4 -1.68 4 -1 4 C-0.67 2.68 -0.34 1.36 0 0 Z " fill="#E4E6F5" transform="translate(557,169)"/>
<path d="M0 0 C0.99 0.33 1.98 0.66 3 1 C2.67 2.32 2.34 3.64 2 5 C0.68 5.33 -0.64 5.66 -2 6 C-1.49396008 3.83125748 -1.00016187 2.00032373 0 0 Z " fill="#6971B2" transform="translate(152,167)"/>
<path d="M0 0 C2.475 0.495 2.475 0.495 5 1 C4.01 1.495 4.01 1.495 3 2 C3 3.32 3 4.64 3 6 C2.01 5.67 1.02 5.34 0 5 C0 3.35 0 1.7 0 0 Z " fill="#6F7CC5" transform="translate(485,158)"/>
<path d="M0 0 C-0.75 6.75 -0.75 6.75 -3 9 C-3.33 6.69 -3.66 4.38 -4 2 C-1 0 -1 0 0 0 Z " fill="#535E9A" transform="translate(570,157)"/>
<path d="M0 0 C2.0625 0.4375 2.0625 0.4375 4 1 C3.6875 2.9375 3.6875 2.9375 3 5 C2.01 5.33 1.02 5.66 0 6 C-0.38218767 4.34385343 -0.71395102 2.67542976 -1 1 C-0.67 0.67 -0.34 0.34 0 0 Z " fill="#6E77C3" transform="translate(519,154)"/>
<path d="M0 0 C0.66 0 1.32 0 2 0 C1.67 2.97 1.34 5.94 1 9 C-1.14809171 5.77786243 -1.29386153 4.72224599 -1 1 C-0.67 0.67 -0.34 0.34 0 0 Z " fill="#6A75C6" transform="translate(291,143)"/>
<path d="M0 0 C2.475 0.99 2.475 0.99 5 2 C4.67 4.64 4.34 7.28 4 10 C2.26337666 6.77484237 1.1094072 3.48670834 0 0 Z " fill="#C0C0BB" transform="translate(338,134)"/>
<path d="M0 0 C0.99 0.33 1.98 0.66 3 1 C2.071875 2.1446875 2.071875 2.1446875 1.125 3.3125 C-1.05597052 5.99625809 -1.05597052 5.99625809 -3 9 C-3.36923077 3.46153846 -3.36923077 3.46153846 -1.5 1.125 C-1.005 0.75375 -0.51 0.3825 0 0 Z " fill="#4A4D7F" transform="translate(117,130)"/>
<path d="M0 0 C3.72114571 2.31537955 6.61229661 4.28579473 9 8 C7.125 7.75 7.125 7.75 5 7 C4.30062468 5.68352881 3.63270867 4.34977849 3 3 C2.01 2.67 1.02 2.34 0 2 C0 1.34 0 0.68 0 0 Z " fill="#ECF0FA" transform="translate(550,119)"/>
<path d="M0 0 C0.66 0.66 1.32 1.32 2 2 C-6.57142857 2.28571429 -6.57142857 2.28571429 -10 0 C-6.25976024 -1.24674659 -3.83399823 -0.76679965 0 0 Z " fill="#5B5D88" transform="translate(312,116)"/>
<path d="M0 0 C6.625 -0.25 6.625 -0.25 10 2 C4.58461538 3.23076923 4.58461538 3.23076923 1.625 2.0625 C1.08875 1.711875 0.5525 1.36125 0 1 C0 0.67 0 0.34 0 0 Z " fill="#6266A0" transform="translate(263,82)"/>
<path d="M0 0 C1 3 1 3 0 6 C-2.0625 7.1875 -2.0625 7.1875 -4 8 C-4.33 6.68 -4.66 5.36 -5 4 C-4.360625 3.71125 -3.72125 3.4225 -3.0625 3.125 C-0.84793921 2.17176549 -0.84793921 2.17176549 0 0 Z " fill="#3A4699" transform="translate(169,69)"/>
<path d="M0 0 C0.33 0 0.66 0 1 0 C1.03738281 0.62648438 1.07476562 1.25296875 1.11328125 1.8984375 C1.17902344 2.71570313 1.24476562 3.53296875 1.3125 4.375 C1.37050781 5.18710938 1.42851563 5.99921875 1.48828125 6.8359375 C1.82990528 9.37921338 1.82990528 9.37921338 5 11 C3.125 11.625 3.125 11.625 1 12 C0.34 11.34 -0.32 10.68 -1 10 C-0.9765625 7.6171875 -0.9765625 7.6171875 -0.625 4.875 C-0.51414062 3.96492188 -0.40328125 3.05484375 -0.2890625 2.1171875 C-0.19367188 1.41851562 -0.09828125 0.71984375 0 0 Z " fill="#6981D0" transform="translate(89,64)"/>
<path d="M0 0 C3.96 1.98 3.96 1.98 8 4 C7.67 4.66 7.34 5.32 7 6 C4.625 5.8125 4.625 5.8125 2 5 C0.6875 2.4375 0.6875 2.4375 0 0 Z " fill="#CFD9F2" transform="translate(95,41)"/>
<path d="M0 0 C0.99 0.66 1.98 1.32 3 2 C2.67 2.66 2.34 3.32 2 4 C-1.0625 4.625 -1.0625 4.625 -4 5 C-3.6875 3.0625 -3.6875 3.0625 -3 1 C-2.01 0.67 -1.02 0.34 0 0 Z " fill="#BBBCC2" transform="translate(469,176)"/>
<path d="M0 0 C0 0.66 0 1.32 0 2 C-2.64 2.66 -5.28 3.32 -8 4 C-8 3.34 -8 2.68 -8 2 C-4.77208445 -0.1519437 -3.71599191 -0.20086443 0 0 Z " fill="#C4C4CC" transform="translate(273,176)"/>
<path d="M0 0 C0.33 0.66 0.66 1.32 1 2 C2.64363134 2.72159424 4.31050386 3.39351421 6 4 C5.34 5.32 4.68 6.64 4 8 C0 3.375 0 3.375 0 0 Z " fill="#B9B7B3" transform="translate(215,160)"/>
<path d="M0 0 C0.99 0.33 1.98 0.66 3 1 C3 2.98 3 4.96 3 7 C2.01 7 1.02 7 0 7 C-1.04449911 3.86650268 -0.93423645 3.01031744 0 0 Z " fill="#737BC2" transform="translate(365,136)"/>
<path d="M0 0 C0 0.66 0 1.32 0 2 C0.33 2.66 0.66 3.32 1 4 C-1.35171131 3.40138258 -3.6859378 2.73075648 -6 2 C-6.33 1.34 -6.66 0.68 -7 0 C-3.98968256 -0.93423645 -3.13349732 -1.04449911 0 0 Z " fill="#C4C2BF" transform="translate(233,132)"/>
<path d="M0 0 C3.93673644 1.31224548 6.22719294 2.91910327 9 6 C3.50847458 5.38983051 3.50847458 5.38983051 1.125 3.5625 C0 2 0 2 0 0 Z " fill="#485180" transform="translate(354,115)"/>
<path d="M0 0 C0.66 0 1.32 0 2 0 C1.67 0.99 1.34 1.98 1 3 C-3.62 3 -8.24 3 -13 3 C-13 2.67 -13 2.34 -13 2 C-12.14535156 1.93941406 -11.29070312 1.87882812 -10.41015625 1.81640625 C-8.75306641 1.69072266 -8.75306641 1.69072266 -7.0625 1.5625 C-5.96035156 1.48128906 -4.85820312 1.40007812 -3.72265625 1.31640625 C-1.08890097 1.29581916 -1.08890097 1.29581916 0 0 Z " fill="#B8BEDF" transform="translate(143,70)"/>
<path d="M0 0 C0.99 0 1.98 0 3 0 C3 1.32 3 2.64 3 4 C1.35 4.33 -0.3 4.66 -2 5 C-1.125 1.125 -1.125 1.125 0 0 Z " fill="#5162C0" transform="translate(149,67)"/>
<path d="M0 0 C0.66 0.99 1.32 1.98 2 3 C1.125 6.6875 1.125 6.6875 0 10 C-0.66 10 -1.32 10 -2 10 C-1.125 2.25 -1.125 2.25 0 0 Z " fill="#5872A7" transform="translate(66,41)"/>
<path d="M0 0 C0.66 0.33 1.32 0.66 2 1 C1 4 1 4 -0.875 5.25 C-3 6 -3 6 -6 5 C-4.02 3.35 -2.04 1.7 0 0 Z " fill="#6B75AC" transform="translate(39,154)"/>
<path d="M0 0 C2.31 0 4.62 0 7 0 C6.01 0.33 5.02 0.66 4 1 C3.67 1.99 3.34 2.98 3 4 C1.35 3.67 -0.3 3.34 -2 3 C-1.34 2.67 -0.68 2.34 0 2 C0 1.34 0 0.68 0 0 Z " fill="#000000" transform="translate(148,153)"/>
<path d="M0 0 C3.68754757 0.49831724 5.60490662 1.10067643 8 4 C7.01 4.66 6.02 5.32 5 6 C4.67 4.68 4.34 3.36 4 2 C2.68 1.67 1.36 1.34 0 1 C0 0.67 0 0.34 0 0 Z " fill="#F2F4FD" transform="translate(134,117)"/>
<path d="M0 0 C0.79921875 0.01804687 1.5984375 0.03609375 2.421875 0.0546875 C3.02515625 0.07789062 3.6284375 0.10109375 4.25 0.125 C3.59 0.785 2.93 1.445 2.25 2.125 C-0.375 1.75 -0.375 1.75 -2.75 1.125 C-2.75 1.785 -2.75 2.445 -2.75 3.125 C-5.72 2.63 -5.72 2.63 -8.75 2.125 C-5.68753253 0.34090198 -3.52920727 -0.10380021 0 0 Z " fill="#D2D0D3" transform="translate(116.75,114.875)"/>
<path d="M0 0 C0.66 0 1.32 0 2 0 C2.33 0.66 2.66 1.32 3 2 C5.01669827 3.13350534 5.01669827 3.13350534 7 4 C6.34 4.66 5.68 5.32 5 6 C1.535 4.02 1.535 4.02 -2 2 C-1.34 1.34 -0.68 0.68 0 0 Z " fill="#777EC0" transform="translate(271,84)"/>
<path d="M0 0 C0.66 0 1.32 0 2 0 C2 1.98 2 3.96 2 6 C1.01 6 0.02 6 -1 6 C-1.625 4.125 -1.625 4.125 -2 2 C-1.34 1.34 -0.68 0.68 0 0 Z " fill="#5C80E3" transform="translate(76,78)"/>
<path d="M0 0 C0.33 0.66 0.66 1.32 1 2 C-0.65 4.31 -2.3 6.62 -4 9 C-4.33 8.01 -4.66 7.02 -5 6 C-3.59554165 3.7363436 -1.8032087 1.9791315 0 0 Z " fill="#1D2669" transform="translate(167,75)"/>
<path d="M0 0 C1.65 0 3.3 0 5 0 C5.33 1.65 5.66 3.3 6 5 C4.02 4.01 2.04 3.02 0 2 C0 1.34 0 0.68 0 0 Z " fill="#5C649E" transform="translate(439,153)"/>
<path d="M0 0 C0.99 0.33 1.98 0.66 3 1 C2.54625 1.5775 2.0925 2.155 1.625 2.75 C0.15886484 4.7800333 -0.94857784 6.73539843 -2 9 C-2.25 3.375 -2.25 3.375 0 0 Z " fill="#E2E6F8" transform="translate(440,132)"/>
<path d="M0 0 C2 3 2 3 2 5 C0.02 5 -1.96 5 -4 5 C-3 2 -3 2 0 0 Z " fill="#D8D7D3" transform="translate(206,129)"/>
<path d="M0 0 C0.66 0.33 1.32 0.66 2 1 C1.67 1.99 1.34 2.98 1 4 C-0.32 4 -1.64 4 -3 4 C-3 4.66 -3 5.32 -3 6 C-3.66 5.67 -4.32 5.34 -5 5 C-3.35 3.35 -1.7 1.7 0 0 Z " fill="#536ACC" transform="translate(98,104)"/>
<path d="M0 0 C1.85255023 3.70510046 2.5183213 5.06075811 2 9 C1.01 9.66 0.02 10.32 -1 11 C-0.67 7.37 -0.34 3.74 0 0 Z " fill="#5771C9" transform="translate(86,97)"/>
<path d="M0 0 C0.66 0 1.32 0 2 0 C1.34 1.32 0.68 2.64 0 4 C-0.66 4 -1.32 4 -2 4 C-2.66 5.32 -3.32 6.64 -4 8 C-4 4.06830895 -2.60580385 2.83572772 0 0 Z " fill="#898886" transform="translate(182,95)"/>
<path d="M0 0 C0.90105469 0.11085938 1.80210937 0.22171875 2.73046875 0.3359375 C3.76107422 0.47902344 3.76107422 0.47902344 4.8125 0.625 C4.8125 0.955 4.8125 1.285 4.8125 1.625 C3.89017578 1.71587891 3.89017578 1.71587891 2.94921875 1.80859375 C2.14097656 1.89238281 1.33273438 1.97617188 0.5 2.0625 C-0.30050781 2.14371094 -1.10101563 2.22492188 -1.92578125 2.30859375 C-4.34837179 2.57765693 -4.34837179 2.57765693 -7.1875 3.625 C-7.5175 2.965 -7.8475 2.305 -8.1875 1.625 C-4.73535147 -0.67643236 -3.95270676 -0.51333854 0 0 Z " fill="#D8D8E3" transform="translate(249.1875,98.375)"/>
</svg>
