<?xml version="1.0" encoding="UTF-8"?>
<svg version="1.1" xmlns="http://www.w3.org/2000/svg" width="221" height="221">
<path d="M0 0 C1.02456299 0.32145996 1.02456299 0.32145996 2.06982422 0.64941406 C30.56857387 9.83048839 53.60912776 30.29518396 67.25 56.8125 C79.59870335 81.80543121 82.57069615 112.34213457 74 139 C73.78569336 139.68304199 73.57138672 140.36608398 73.35058594 141.06982422 C64.16951161 169.56857387 43.70481604 192.60912776 17.1875 206.25 C-7.80543121 218.59870335 -38.34213457 221.57069615 -65 213 C-65.68304199 212.78569336 -66.36608398 212.57138672 -67.06982422 212.35058594 C-95.56857387 203.16951161 -118.60912776 182.70481604 -132.25 156.1875 C-144.59870335 131.19456879 -147.57069615 100.65786543 -139 74 C-138.67854004 72.97543701 -138.67854004 72.97543701 -138.35058594 71.93017578 C-129.16951161 43.43142613 -108.70481604 20.39087224 -82.1875 6.75 C-57.19456879 -5.59870335 -26.65786543 -8.57069615 0 0 Z " fill="#5C7DD8" transform="translate(143,4)"/>
<path d="M0 0 C1.02456299 0.32145996 1.02456299 0.32145996 2.06982422 0.64941406 C30.56857387 9.83048839 53.60912776 30.29518396 67.25 56.8125 C79.59870335 81.80543121 82.57069615 112.34213457 74 139 C73.78569336 139.68304199 73.57138672 140.36608398 73.35058594 141.06982422 C64.16951161 169.56857387 43.70481604 192.60912776 17.1875 206.25 C-7.80543121 218.59870335 -38.34213457 221.57069615 -65 213 C-65.68304199 212.78569336 -66.36608398 212.57138672 -67.06982422 212.35058594 C-95.56857387 203.16951161 -118.60912776 182.70481604 -132.25 156.1875 C-144.59870335 131.19456879 -147.57069615 100.65786543 -139 74 C-138.67854004 72.97543701 -138.67854004 72.97543701 -138.35058594 71.93017578 C-129.16951161 43.43142613 -108.70481604 20.39087224 -82.1875 6.75 C-57.19456879 -5.59870335 -26.65786543 -8.57069615 0 0 Z M-72 24 C-73.35230628 24.22008601 -74.70633918 24.43006929 -76.0625 24.625 C-91.74113252 28.11802867 -106.51157705 41.93807331 -115 55 C-124.46247519 71.71257004 -128.3218982 90.43208972 -123.5 109.3125 C-117.80852983 126.3667993 -107.68801114 140.22547268 -93.3203125 151.01171875 C-90.10509806 153.76684358 -89.18644731 155.60458909 -88.62890625 159.77734375 C-88.44903072 168.33730303 -90.04941275 175.36590746 -94 183 C-94.99653383 184.0034542 -95.99552579 185.00449431 -97 186 C-96.76956136 188.65466049 -96.76956136 188.65466049 -96 191 C-84.29155494 191.48785188 -74.22840469 188.68517541 -65.40234375 180.62890625 C-60.05570236 174.91712838 -56 170.07797237 -56 162 C-55.02852776 162.00999275 -55.02852776 162.00999275 -54.03742981 162.02018738 C-47.23927828 162.08704346 -40.44122157 162.13200732 -33.64282227 162.16479492 C-31.11251018 162.1797939 -28.58222369 162.20019973 -26.05200195 162.22631836 C-22.39528038 162.2630947 -18.73890533 162.27981593 -15.08203125 162.29296875 C-13.96794388 162.30845261 -12.85385651 162.32393646 -11.70600891 162.33988953 C7.98388416 162.3440201 25.80079373 155.13655336 39.79296875 141.22265625 C42.28602725 138.53810729 44.68947963 135.84310132 47 133 C47.41685059 132.49839355 47.83370117 131.99678711 48.26318359 131.47998047 C52.10531293 126.55092338 53.90092543 121.29535536 55.75 115.375 C56.05292969 114.446875 56.35585937 113.51875 56.66796875 112.5625 C62.60773703 94.13601886 61.00811059 76.47125915 52.9375 58.875 C46.18193563 46.18142363 37.19748145 37.47378837 25 30 C24.28400635 29.52264404 23.5680127 29.04528809 22.83032227 28.5534668 C6.67997095 19.689093 -13.27754249 21.32026172 -31.09680176 21.5401001 C-34.07672168 21.570226 -37.05642872 21.57372755 -40.0364809 21.57667637 C-42.93198934 21.58111446 -45.82735366 21.59642624 -48.7227993 21.6155529 C-50.09300767 21.62435802 -51.46323087 21.63112476 -52.83345985 21.63571358 C-62.60138463 21.67947492 -62.60138463 21.67947492 -72 24 Z " fill="#EBA698" transform="translate(143,4)"/>
<path d="M0 0 C1.00461777 -0.00945648 2.00923553 -0.01891296 3.04429626 -0.02865601 C4.66314476 -0.01954697 4.66314476 -0.01954697 6.31469727 -0.01025391 C7.4291774 -0.01312408 8.54365753 -0.01599426 9.69190979 -0.01895142 C12.04802966 -0.02099223 14.40416647 -0.01546121 16.76025391 -0.00292969 C20.36407458 0.01310781 23.96677111 -0.00277085 27.57055664 -0.02197266 C29.86027266 -0.01998993 32.14998797 -0.01614566 34.43969727 -0.01025391 C36.05550941 -0.01936295 36.05550941 -0.01936295 37.70396423 -0.02865601 C41.71103351 0.00894462 45.25247584 0.19908198 49.12548828 1.25878906 C52.26169682 4.9319475 51.61346342 9.20001737 51.53735352 13.85693359 C51.5373938 14.88878784 51.53743408 15.92064209 51.53747559 16.98376465 C51.53211262 19.16599618 51.51449698 21.34822671 51.4855957 23.53027344 C51.44376293 26.87543596 51.4445234 30.2185851 51.45141602 33.56396484 C51.44092322 35.68246846 51.42798464 37.80096166 51.41235352 39.91943359 C51.4121521 40.9226062 51.41195068 41.92577881 51.41174316 42.95935059 C51.3958313 43.89041626 51.37991943 44.82148193 51.36352539 45.78076172 C51.3551062 46.60000122 51.34668701 47.41924072 51.3380127 48.26330566 C50.94360352 50.38818359 50.94360352 50.38818359 49.7454834 52.15089417 C47.30366777 53.82760563 45.64576647 53.77533235 42.69360352 53.79223633 C41.08678711 53.81126259 41.08678711 53.81126259 39.44750977 53.83067322 C38.2912207 53.82773758 37.13493164 53.82480194 35.94360352 53.82177734 C34.75637695 53.8270192 33.56915039 53.83226105 32.34594727 53.83766174 C29.83423648 53.84408917 27.32249562 53.8427357 24.81079102 53.83422852 C20.95868596 53.82571692 17.10806203 53.85447544 13.25610352 53.88623047 C10.81860396 53.88784241 8.38110177 53.88726508 5.94360352 53.88427734 C4.78731445 53.89551132 3.63102539 53.9067453 2.43969727 53.9183197 C0.83288086 53.90424828 0.83288086 53.90424828 -0.80639648 53.88989258 C-2.22178711 53.88964333 -2.22178711 53.88964333 -3.66577148 53.88938904 C-6.05639648 53.38818359 -6.05639648 53.38818359 -7.85926819 51.64614868 C-9.19816223 49.12079196 -9.4412337 47.6015513 -9.46044922 44.7590332 C-9.47313339 43.84806381 -9.48581757 42.93709442 -9.49888611 41.9985199 C-9.49595047 41.02238235 -9.49301483 40.04624481 -9.48999023 39.04052734 C-9.49523209 38.03228409 -9.50047394 37.02404083 -9.50587463 35.98524475 C-9.51229241 33.85613933 -9.51096101 31.72699844 -9.50244141 29.59790039 C-9.49391819 26.33399725 -9.52271845 23.07183629 -9.55444336 19.80810547 C-9.55605508 17.73974662 -9.5554784 15.67138466 -9.55249023 13.60302734 C-9.56372421 12.62486557 -9.57495819 11.6467038 -9.58653259 10.63890076 C-9.57715164 9.73108353 -9.56777069 8.8232663 -9.55810547 7.88793945 C-9.5579393 7.08948105 -9.55777313 6.29102264 -9.55760193 5.46836853 C-9.05639648 3.38818359 -9.05639648 3.38818359 -7.34106445 1.63121033 C-4.67112367 0.17856696 -3.02772729 0.0081929 0 0 Z " fill="#D1D4DD" transform="translate(107.056396484375,68.61181640625)"/>
<path d="M0 0 C3.92915908 0.50733647 6.95960342 2.30551748 10.34375 4.2421875 C11.64450499 4.97112545 12.94656318 5.69774343 14.25 6.421875 C15.17039062 6.93379395 15.17039062 6.93379395 16.109375 7.45605469 C18.28969657 8.60146011 20.54672766 9.48437668 22.84375 10.3671875 C23.84375 11.3671875 23.84375 11.3671875 23.95727539 14.78540039 C23.95711628 16.30355738 23.95142226 17.82171979 23.94140625 19.33984375 C23.9399913 20.13748642 23.93857635 20.93512909 23.93711853 21.75694275 C23.93150316 24.31456185 23.91894812 26.87209468 23.90625 29.4296875 C23.90123698 31.15950395 23.89667373 32.88932176 23.89257812 34.61914062 C23.88152875 38.86852303 23.86425386 43.11784062 23.84375 47.3671875 C20.45561383 49.04984395 17.05710911 50.71041611 13.65625 52.3671875 C12.21668945 53.08261719 12.21668945 53.08261719 10.74804688 53.8125 C9.81669922 54.26367188 8.88535156 54.71484375 7.92578125 55.1796875 C7.07218018 55.59863281 6.2185791 56.01757812 5.33911133 56.44921875 C2.61935461 57.44973585 0.71724586 57.69311995 -2.15625 57.3671875 C-4.71546608 54.80797142 -4.4089687 53.85865032 -4.41503906 50.30664062 C-4.42449554 48.72490051 -4.42449554 48.72490051 -4.43414307 47.11120605 C-4.4300946 45.96849243 -4.42604614 44.82577881 -4.421875 43.6484375 C-4.42378845 42.47962036 -4.4257019 41.31080322 -4.42767334 40.10656738 C-4.42903626 37.63175237 -4.42533241 35.15693024 -4.41699219 32.68212891 C-4.40629446 28.88297545 -4.41688418 25.08429491 -4.4296875 21.28515625 C-4.42836592 18.88541562 -4.42580357 16.48567528 -4.421875 14.0859375 C-4.42592346 12.94322388 -4.42997192 11.80051025 -4.43414307 10.62316895 C-4.42783875 9.56867554 -4.42153442 8.51418213 -4.41503906 7.42773438 C-4.41344788 6.4966687 -4.41185669 5.56560303 -4.41021729 4.60632324 C-4.0571894 1.49380679 -3.08290796 0.52498795 0 0 Z " fill="#D7DBE2" transform="translate(69.15625,66.6328125)"/>
<path d="M0 0 C0.33 0 0.66 0 1 0 C1.58175161 13.73470805 1.52138406 25.2782145 -4 38 C-4.27585938 38.80953125 -4.55171875 39.6190625 -4.8359375 40.453125 C-10.61899532 56.3708485 -27.0476031 68.22987736 -41.60546875 75.2578125 C-51.75613218 79.61501302 -61.95656246 80.29565607 -72.88671875 80.1953125 C-74.66125175 80.19106766 -74.66125175 80.19106766 -76.47163391 80.18673706 C-80.21036355 80.175638 -83.94884408 80.15055275 -87.6875 80.125 C-90.23892881 80.11495692 -92.79036141 80.1058334 -95.34179688 80.09765625 C-101.56128137 80.07573241 -107.78062288 80.04235867 -114 80 C-114.14308594 80.93199219 -114.28617188 81.86398438 -114.43359375 82.82421875 C-115.77827724 90.36371998 -120.40667991 95.98859365 -126 101 C-133.72879555 106.06141855 -140.55804823 109.20366594 -149.875 109.0625 C-151.04675781 109.04896484 -151.04675781 109.04896484 -152.2421875 109.03515625 C-152.82226562 109.02355469 -153.40234375 109.01195312 -154 109 C-154 108.01 -154 107.02 -154 106 C-143.5 104.5 -143.5 104.5 -133 103 C-133 102.34 -133 101.68 -133 101 C-128.61538462 98 -128.61538462 98 -126 98 C-126 97.34 -126 96.68 -126 96 C-124.88625 94.9171875 -124.88625 94.9171875 -123.75 93.8125 C-119.10135118 89.05820007 -117.12736496 84.38209487 -115 78 C-94.21 77.67 -73.42 77.34 -52 77 C-52 76.34 -52 75.68 -52 75 C-49.36 74.67 -46.72 74.34 -44 74 C-44 73.34 -44 72.68 -44 72 C-39.545 71.01 -39.545 71.01 -35 70 C-35 69.34 -35 68.68 -35 68 C-33.20703125 66.66796875 -33.20703125 66.66796875 -30.8125 65.1875 C-27.94351778 63.35153182 -25.40523713 61.60180944 -23.0625 59.125 C-22.381875 58.42375 -21.70125 57.7225 -21 57 C-20.34 57 -19.68 57 -19 57 C-18.731875 56.38125 -18.46375 55.7625 -18.1875 55.125 C-17 53 -17 53 -14 51 C-13.505 49.824375 -13.01 48.64875 -12.5 47.4375 C-11.7575 45.7359375 -11.7575 45.7359375 -11 44 C-10.01 43.67 -9.02 43.34 -8 43 C-7.46119302 41.34990362 -6.94021331 39.69087989 -6.53125 38.00390625 C-6 36 -6 36 -4.5 32.375 C-0.64169542 22.2225925 -0.56450373 10.74042616 0 0 Z " fill="#383D9E" transform="translate(201,86)"/>
<path d="M0 0 C1.15249741 0.00222061 2.30499481 0.00444122 3.49241638 0.00672913 C5.4443264 0.00684242 5.4443264 0.00684242 7.43566895 0.00695801 C8.86661313 0.01206543 10.29755694 0.01728144 11.72850037 0.02259827 C13.18438672 0.02446249 14.64027369 0.02588637 16.09616089 0.02688599 C19.93488791 0.03071086 23.77357731 0.04054088 27.61228943 0.05158997 C31.52667227 0.06180474 35.44106117 0.06638375 39.35545349 0.07142639 C47.04101755 0.08216318 54.72655057 0.09923923 62.41209412 0.12025452 C62.41209412 0.45025452 62.41209412 0.78025452 62.41209412 1.12025452 C61.31573891 1.12572296 61.31573891 1.12572296 60.19723511 1.13130188 C53.24093347 1.16948643 46.28500679 1.22667653 39.32903957 1.30415726 C35.75457613 1.34333036 32.18034791 1.37566377 28.60569763 1.39125061 C25.14293667 1.40661989 21.68082382 1.44141061 18.21835518 1.48856354 C16.28299034 1.51018353 14.34744146 1.51271067 12.41195679 1.51460266 C-6.90048488 1.82671198 -23.87124209 8.35717223 -37.58790588 22.12025452 C-38.38067932 22.85373108 -39.17345276 23.58720764 -39.99024963 24.34291077 C-49.51459334 33.32843969 -56.16026659 44.91459104 -57.58790588 58.12025452 C-58.57790588 58.12025452 -59.56790588 58.12025452 -60.58790588 58.12025452 C-60.91790588 65.38025452 -61.24790588 72.64025452 -61.58790588 80.12025452 C-61.91790588 80.12025452 -62.24790588 80.12025452 -62.58790588 80.12025452 C-63.16802197 58.37664407 -59.64992277 39.75891905 -44.58790588 23.12025452 C-44.01942932 22.46025452 -43.45095276 21.80025452 -42.86524963 21.12025452 C-34.31195001 11.82240015 -21.78140075 3.73648176 -9.21290588 1.99525452 C-5.8495553 1.51954488 -3.13608047 0.14572703 0 0 Z " fill="#839FDF" transform="translate(80.58790588378906,25.879745483398438)"/>
<path d="M0 0 C0.495 1.98 0.495 1.98 1 4 C-2.10554406 7.47050707 -5.00172282 10.55365447 -9.65820312 11.59375 C-12.54962398 11.72306582 -15.36051879 11.6622436 -18.25 11.5 C-19.2296875 11.47679688 -20.209375 11.45359375 -21.21875 11.4296875 C-25.31944669 11.30644252 -29.02584542 11.01600126 -33 10 C-34.48496921 10.13400275 -35.96526945 10.32664519 -37.4375 10.5625 C-43.70998569 11.28122232 -49.91153019 10.67368876 -56 9 C-57.67407227 7.45214844 -57.67407227 7.45214844 -59 6 C-57.97975739 5.99786247 -57.97975739 5.99786247 -56.93890381 5.99568176 C-49.86592166 5.9760104 -42.79380549 5.92179119 -35.72119141 5.84741211 C-33.08095511 5.82420088 -30.4406258 5.80982913 -27.80029297 5.80444336 C-24.00689522 5.79517726 -20.21496674 5.75423348 -16.421875 5.70703125 C-15.23946228 5.7109639 -14.05704956 5.71489655 -12.83880615 5.71894836 C-6.41723774 5.78763016 -6.41723774 5.78763016 -1.22363281 2.45581055 C-0.81983398 1.64539307 -0.41603516 0.83497559 0 0 Z " fill="#5761B3" transform="translate(159,116)"/>
<path d="M0 0 C0.99 0.66 1.98 1.32 3 2 C3.40339609 4.53123349 3.60748333 6.82851962 3.6875 9.375 C3.73765259 10.48186157 3.73765259 10.48186157 3.78881836 11.61108398 C4.15439607 20.73533379 4.08496669 29.87080139 4 39 C3.01 37.68 2.02 36.36 1 35 C-4.05308583 38.11170953 -9.01817328 41.32533754 -13.921875 44.66796875 C-17.81968845 47.16637925 -20.30994459 48.26055863 -25 48 C-25.33 47.34 -25.66 46.68 -26 46 C-23.52212696 44.74738197 -21.04276098 43.49787439 -18.5625 42.25 C-17.87478516 41.90195313 -17.18707031 41.55390625 -16.47851562 41.1953125 C-11.37088287 38.62961791 -6.23697841 36.32754596 -1 34 C-0.67 22.78 -0.34 11.56 0 0 Z " fill="#5864C3" transform="translate(94,79)"/>
<path d="M0 0 C1.52145126 -0.00934319 1.52145126 -0.00934319 3.07363892 -0.01887512 C4.70660416 -0.0050605 4.70660416 -0.0050605 6.37255859 0.0090332 C7.49415375 0.0085347 8.6157489 0.00803619 9.77133179 0.00752258 C12.14005304 0.00986177 14.50877683 0.01958109 16.87744141 0.03613281 C20.51405908 0.05976937 24.14994592 0.05668689 27.78662109 0.05004883 C30.08610465 0.05562403 32.38558512 0.0627329 34.68505859 0.0715332 C36.32409653 0.07016609 36.32409653 0.07016609 37.99624634 0.06877136 C39.50824112 0.08306938 39.50824112 0.08306938 41.05078125 0.09765625 C42.38503647 0.10456734 42.38503647 0.10456734 43.74624634 0.11161804 C45.89599609 0.37231445 45.89599609 0.37231445 47.89599609 2.37231445 C47.24897736 2.38040131 46.60195862 2.38848816 45.93533325 2.39682007 C39.21970481 2.48267317 32.50437813 2.5821676 25.7890625 2.68969727 C23.28065038 2.72805318 20.77218202 2.7628942 18.26367188 2.79418945 C14.66434581 2.83969654 11.06540926 2.89771445 7.46630859 2.95825195 C6.33919464 2.96980316 5.21208069 2.98135437 4.05081177 2.99325562 C3.00988373 3.01312531 1.96895569 3.032995 0.89648438 3.0534668 C-0.48251541 3.0734523 -0.48251541 3.0734523 -1.88937378 3.09384155 C-4.30867342 3.16807496 -4.30867342 3.16807496 -6.10400391 5.37231445 C-6.34982234 8.23668269 -6.47769772 11.01134585 -6.51806641 13.88012695 C-6.53743256 14.72074677 -6.55679871 15.56136658 -6.57675171 16.42745972 C-6.63662049 19.11730749 -6.68296162 21.80719789 -6.72900391 24.49731445 C-6.76717701 26.31894789 -6.80622834 28.14056315 -6.84619141 29.9621582 C-6.94232788 34.43206297 -7.0263316 38.90205224 -7.10400391 43.37231445 C-7.76400391 43.04231445 -8.42400391 42.71231445 -9.10400391 42.37231445 C-9.20282177 36.87310039 -9.2754477 31.3744021 -9.32373047 25.87451172 C-9.34385598 24.00332641 -9.3711594 22.13220406 -9.40576172 20.26123047 C-9.45423972 17.57284014 -9.47696263 14.88528057 -9.49462891 12.1965332 C-9.51527405 11.35893967 -9.53591919 10.52134613 -9.55718994 9.65837097 C-9.5594454 3.83105713 -9.5594454 3.83105713 -7.3946228 1.65054321 C-4.69994021 0.14683572 -3.0725509 -0.0021703 0 0 Z " fill="#D4DAE8" transform="translate(107.10400390625,68.627685546875)"/>
<path d="M0 0 C0.66 0.33 1.32 0.66 2 1 C1.18208984 1.94746094 1.18208984 1.94746094 0.34765625 2.9140625 C-9.47965754 14.57244843 -19.30809655 27.34989307 -21 43 C-21.99 43 -22.98 43 -24 43 C-24.33 50.26 -24.66 57.52 -25 65 C-25.33 65 -25.66 65 -26 65 C-26.57730228 43.36185546 -23.13253578 24.50524961 -8 8 C-5.39040902 5.27074524 -2.73315722 2.60537324 0 0 Z " fill="#89A1DF" transform="translate(44,41)"/>
<path d="M0 0 C9.10383153 3.69907376 14.56288854 14.93164615 18.4921875 23.34765625 C23.77120127 36.13490464 24.52809491 47.37221738 24 61 C22.15559021 59.43824319 21.10498342 58.53457476 20.63110352 56.12158203 C20.63037842 55.42403809 20.62965332 54.72649414 20.62890625 54.0078125 C20.6144043 53.22656006 20.59990234 52.44530762 20.58496094 51.64038086 C20.57754883 50.81030518 20.57013672 49.98022949 20.5625 49.125 C20.04146445 32.51620717 13.90034898 15.67335685 1.78515625 3.8359375 C0 2 0 2 0 0 Z " fill="#5561BC" transform="translate(179,43)"/>
<path d="M0 0 C4.06503929 1.52211112 5.71326354 4.04576642 8.125 7.5625 C10.52435062 11.38705618 10.52435062 11.38705618 14 14 C14 14.66 14 15.32 14 16 C14.53625 16.2475 15.0725 16.495 15.625 16.75 C21.16476593 19.66566628 25.05609229 22.33863903 28 28 C28.25 31.375 28.25 31.375 28 34 C26 31 26 31 25.09765625 29.2734375 C21.98607996 23.56692401 17.79978662 20.20289896 12.7265625 16.23046875 C7.14954709 11.66818251 2.82287438 6.64205737 0 0 Z " fill="#4A5DC8" transform="translate(29,132)"/>
<path d="M0 0 C0.53625 0.226875 1.0725 0.45375 1.625 0.6875 C0.67238281 1.21859375 -0.28023437 1.7496875 -1.26171875 2.296875 C-2.52877779 3.01018231 -3.79569751 3.72373716 -5.0625 4.4375 C-5.68833984 4.78554687 -6.31417969 5.13359375 -6.95898438 5.4921875 C-9.90419851 7.15754419 -12.49351295 8.78446514 -15.125 10.9375 C-18.00566738 13.17801907 -19.81682669 13.01849287 -23.375 12.6875 C-23.705 12.0275 -24.035 11.3675 -24.375 10.6875 C-12.4609375 4.73046875 -12.4609375 4.73046875 -10.35449219 3.68896484 C-8.58038044 2.79140609 -6.83832149 1.83114097 -5.1015625 0.86328125 C-2.375 -0.3125 -2.375 -0.3125 0 0 Z " fill="#555DAD" transform="translate(92.375,114.3125)"/>
<path d="M0 0 C0.75 1.75 0.75 1.75 1 4 C-0.29003906 6.11621094 -0.29003906 6.11621094 -3 8 C-6.70253053 8.57120415 -10.37107174 8.46404585 -14.109375 8.390625 C-15.19132141 8.38496521 -16.27326782 8.37930542 -17.38800049 8.37347412 C-20.84245107 8.35108999 -24.29586311 8.30088791 -27.75 8.25 C-30.09243293 8.22993772 -32.43488213 8.21168648 -34.77734375 8.1953125 C-40.5185833 8.15121855 -46.25921745 8.08428555 -52 8 C-52 7.67 -52 7.34 -52 7 C-51.43481155 6.99635437 -50.86962311 6.99270874 -50.28730774 6.98895264 C-44.39823467 6.94710252 -38.50993914 6.87773972 -32.62133789 6.79248047 C-30.42447694 6.7642761 -28.22751461 6.74305893 -26.03051758 6.72900391 C-22.8700777 6.70756751 -19.71085604 6.6609122 -16.55078125 6.609375 C-15.57039383 6.60814636 -14.59000641 6.60691772 -13.57991028 6.60565186 C-9.21221058 6.51209634 -6.6831817 6.42202695 -2.90307617 4.08691406 C-0.95939908 2.14565532 -0.95939908 2.14565532 0 0 Z " fill="#4248A1" transform="translate(159,116)"/>
<path d="M0 0 C1.09651823 3.41139003 0.94215473 6.20655581 0.5625 9.75 C0.46066406 10.73484375 0.35882812 11.7196875 0.25390625 12.734375 C0.12822266 13.85585937 0.12822266 13.85585937 0 15 C-0.99 15 -1.98 15 -3 15 C-3.33 22.26 -3.66 29.52 -4 37 C-4.33 37 -4.66 37 -5 37 C-5.35213305 23.8015316 -5.09566877 12.38469061 0 0 Z " fill="#A196C8" transform="translate(23,69)"/>
<path d="M0 0 C2 1 2 1 2.62841797 2.71264648 C3.91713765 8.56853206 4.24569729 14.07869967 4.125 20.0625 C4.11597656 20.92810547 4.10695312 21.79371094 4.09765625 22.68554688 C4.07439723 24.79048779 4.03854008 26.89528342 4 29 C1.63447068 27.1852342 1.04245474 26.26779328 0.56762695 23.27270508 C0.54144287 22.19915771 0.51525879 21.12561035 0.48828125 20.01953125 C0.45283203 18.85615234 0.41738281 17.69277344 0.38085938 16.49414062 C0.34702148 14.67172852 0.34702148 14.67172852 0.3125 12.8125 C0.27833984 11.58595703 0.24417969 10.35941406 0.20898438 9.09570312 C0.1264059 6.06389322 0.05728631 3.03237621 0 0 Z " fill="#5B5FAD" transform="translate(199,75)"/>
<path d="M0 0 C0.66 0 1.32 0 2 0 C1.96970703 0.70084717 1.93941406 1.40169434 1.90820312 2.1237793 C1.77103411 5.31163991 1.63550084 8.49956806 1.5 11.6875 C1.42845703 13.34168945 1.42845703 13.34168945 1.35546875 15.02929688 C1.31035156 16.09599609 1.26523437 17.16269531 1.21875 18.26171875 C1.17685547 19.24100342 1.13496094 20.22028809 1.09179688 21.22924805 C1.00589375 23.8221059 0.983438 26.40597689 1 29 C-1.09682539 25.85476191 -1.24924608 25.12575659 -1.23046875 21.54296875 C-1.22853516 20.67736328 -1.22660156 19.81175781 -1.22460938 18.91992188 C-1.21236328 18.01822266 -1.20011719 17.11652344 -1.1875 16.1875 C-1.1865332 14.85235352 -1.1865332 14.85235352 -1.18554688 13.49023438 C-1.15483592 8.88700404 -0.93539361 4.52730509 0 0 Z " fill="#7B93DB" transform="translate(20,84)"/>
<path d="M0 0 C3.98772667 1.55842192 6.11078195 4.11897146 8.8125 7.375 C9.62332031 8.33148438 10.43414062 9.28796875 11.26953125 10.2734375 C13 13 13 13 12.76171875 15.3515625 C12.51035156 15.89554688 12.25898438 16.43953125 12 17 C11.46890625 16.25234375 10.9378125 15.5046875 10.390625 14.734375 C9.68421875 13.74953125 8.9778125 12.7646875 8.25 11.75 C7.55390625 10.77546875 6.8578125 9.8009375 6.140625 8.796875 C4.09561765 5.99103589 4.09561765 5.99103589 1.734375 3.765625 C0 2 0 2 0 0 Z " fill="#5768C4" transform="translate(179,43)"/>
<path d="M0 0 C4.06503929 1.52211112 5.71326354 4.04576642 8.125 7.5625 C10.52435062 11.38705618 10.52435062 11.38705618 14 14 C13.67 14.99 13.34 15.98 13 17 C7.36201038 11.86565213 3.3138688 6.88265058 0 0 Z " fill="#5667CB" transform="translate(29,132)"/>
<path d="M0 0 C0.33 0 0.66 0 1 0 C1 7.59 1 15.18 1 23 C0.01 23.33 -0.98 23.66 -2 24 C-1.34 16.08 -0.68 8.16 0 0 Z " fill="#3B48B3" transform="translate(201,86)"/>
<path d="M0 0 C0.66 0.33 1.32 0.66 2 1 C-4.2534035 3.5957524 -10.31816637 4.9559635 -17 6 C-17 5.01 -17 4.02 -17 3 C-15.53626953 2.80083984 -15.53626953 2.80083984 -14.04296875 2.59765625 C-12.13451172 2.33275391 -12.13451172 2.33275391 -10.1875 2.0625 C-8.29064453 1.80146484 -8.29064453 1.80146484 -6.35546875 1.53515625 C-3.01678297 1.09607545 -3.01678297 1.09607545 0 0 Z " fill="#4053BE" transform="translate(64,189)"/>
<path d="M0 0 C1.60590933 4.80680345 0.0336293 8.53093562 -2 13 C-4.1875 15.5625 -4.1875 15.5625 -6 17 C-6 13.86263311 -5.57122663 12.86354709 -4.125 10.1875 C-2.3940111 6.86670214 -1.07909754 3.59699181 0 0 Z " fill="#8B8AC9" transform="translate(54,174)"/>
<path d="M0 0 C-2.87164566 2.70272533 -4.30991841 3.94791837 -8.3125 4.25 C-9.199375 4.1675 -10.08625 4.085 -11 4 C-11.33 3.34 -11.66 2.68 -12 2 C-7.86666662 -0.29629632 -4.59061602 -1.53020534 0 0 Z " fill="#4D59B5" transform="translate(80,123)"/>
<path d="M0 0 C1.485 0.99 1.485 0.99 3 2 C3.29296875 4.1640625 3.29296875 4.1640625 3.1875 6.625 C3.16042969 7.44226563 3.13335937 8.25953125 3.10546875 9.1015625 C3.07066406 9.72804688 3.03585938 10.35453125 3 11 C2.01 10.67 1.02 10.34 0 10 C0 6.7 0 3.4 0 0 Z " fill="#5466D3" transform="translate(94,79)"/>
<path d="M0 0 C0.99 0.33 1.98 0.66 3 1 C3 4.3 3 7.6 3 11 C1.68 10.01 0.36 9.02 -1 8 C-0.67 5.36 -0.34 2.72 0 0 Z " fill="#4C57BC" transform="translate(94,105)"/>
<path d="M0 0 C4.59306496 1.4859916 7.43569245 3.85014682 11 7 C10.01 7.33 9.02 7.66 8 8 C7.01 7.34 6.02 6.68 5 6 C5 5.34 5 4.68 5 4 C4.360625 3.896875 3.72125 3.79375 3.0625 3.6875 C2.381875 3.460625 1.70125 3.23375 1 3 C0.67 2.01 0.34 1.02 0 0 Z " fill="#5872D0" transform="translate(168,35)"/>
<path d="M0 0 C3.27286682 2.7819368 4.96427697 6.27954067 7 10 C6.01 10 5.02 10 4 10 C0 3.375 0 3.375 0 0 Z " fill="#5170D6" transform="translate(24,121)"/>
<path d="M0 0 C0.99 0.33 1.98 0.66 3 1 C3.125 3.875 3.125 3.875 3 7 C2.34 7.66 1.68 8.32 1 9 C0 8 0 8 -0.09765625 6.15234375 C-0.06510417 4.1015625 -0.03255208 2.05078125 0 0 Z " fill="#505EC9" transform="translate(94,89)"/>
<path d="M0 0 C0 3 0 3 -1.875 5.1875 C-4 7 -4 7 -6 7 C-4.52307692 2.32307692 -4.52307692 2.32307692 -1.875 0.6875 C-1.25625 0.460625 -0.6375 0.23375 0 0 Z " fill="#4B4FA4" transform="translate(194,128)"/>
<path d="M0 0 C0 0.66 0 1.32 0 2 C-4.15267176 5.11450382 -4.15267176 5.11450382 -7.3125 4.6875 C-7.869375 4.460625 -8.42625 4.23375 -9 4 C-8.34 4 -7.68 4 -7 4 C-7 3.34 -7 2.68 -7 2 C-4.35261084 0.5393715 -3.10551666 0 0 0 Z " fill="#393D9C" transform="translate(75,185)"/>
<path d="M0 0 C0.33 1.32 0.66 2.64 1 4 C-0.9375 6.25 -0.9375 6.25 -3 8 C-3.99 7.67 -4.98 7.34 -6 7 C-4.02 4.69 -2.04 2.38 0 0 Z " fill="#4C56AD" transform="translate(159,116)"/>
<path d="M0 0 C3.33537489 1.11179163 4.63707344 2.47411298 7 5 C6.67 5.99 6.34 6.98 6 8 C4.99403703 7.0479279 3.99538437 6.08812654 3 5.125 C2.443125 4.59132812 1.88625 4.05765625 1.3125 3.5078125 C0 2 0 2 0 0 Z " fill="#565EC0" transform="translate(36,141)"/>
</svg>
